<?xml version="1.0" standalone="no"?>
<!DOCTYPE svg PUBLIC "-//W3C//DTD SVG 1.1//EN" "http://www.w3.org/Graphics/SVG/1.1/DTD/svg11.dtd">
<svg width="100%" height="100%" viewBox="0 0 135 150" version="1.1" xmlns="http://www.w3.org/2000/svg" xmlns:xlink="http://www.w3.org/1999/xlink" xml:space="preserve" style="fill-rule:evenodd;clip-rule:evenodd;stroke-linejoin:round;stroke-miterlimit:1.41421;">
    <g transform="matrix(1,0,0,1,-0,-0.1521)">
        <path d="M41.214,68.383C30.309,68.383 20.036,71.342 12.289,76.717C4.364,82.215 0,89.582 0,97.46C0,100.532 1.666,103.381 4.692,105.48C7.541,107.456 11.3,108.545 15.278,108.545L58.965,108.545C65.008,108.545 69.924,103.573 69.924,97.46C69.924,81.427 57.045,68.383 41.214,68.383" style="fill:rgb(209,145,55);"/>
        <rect x="15.035" y="3.796" width="105.775" height="85.354" style="fill:rgb(189,226,241);"/>
        <rect x="15.035" y="9.806" width="105.775" height="9.015" style="fill:rgb(162,216,239);"/>
        <rect x="15.035" y="18.821" width="105.775" height="13.522" style="fill:rgb(132,207,236);"/>
        <rect x="15.035" y="32.342" width="105.775" height="20.283" style="fill:rgb(93,196,233);"/>
        <path d="M120.809,55.475L120.809,44.087L120.05,43.661C119.728,43.482 119.338,43.469 119.005,43.629L118.24,43.998C117.727,44.244 117.111,44.073 116.8,43.597L110.21,33.506C110.144,33.407 110.064,33.318 109.97,33.242L108.78,32.288C108.397,31.981 107.86,31.956 107.45,32.225L106.358,32.941C105.976,33.192 105.48,33.189 105.102,32.932L99.43,29.095C99.007,28.809 98.444,28.841 98.057,29.174L96.421,30.579C95.98,30.958 95.324,30.942 94.903,30.542L88.153,24.132C87.694,23.695 86.965,23.721 86.538,24.188L85.377,25.458C85.088,25.774 84.645,25.9 84.233,25.783L74.695,23.084C74.142,22.928 73.561,23.209 73.341,23.738L72.99,24.583C72.696,25.288 71.799,25.509 71.211,25.011C70.774,24.641 70.107,24.728 69.705,25.135L66.9,27.977C66.533,28.349 65.958,28.421 65.511,28.152L58,23.633C57.692,23.448 57.314,23.42 56.982,23.557L52.024,25.613C51.495,25.833 50.886,25.623 50.604,25.125L47.918,20.372C47.557,19.735 46.694,19.603 46.159,20.103L44.018,22.107C43.591,22.506 42.93,22.515 42.493,22.127L39.534,19.504C39.261,19.263 38.89,19.167 38.534,19.247L22.994,22.736C22.778,22.784 22.581,22.895 22.428,23.054L15.034,30.713L15.034,55.475L15.034,55.475L15.034,70.801L120.809,70.801L120.809,55.475L120.809,55.475Z" style="fill:rgb(95,153,198);"/>
        <g transform="matrix(1,0,0,1,14.79,19.014)">
            <path d="M31.705,4.404L27.468,45.432L15.835,38.111L31.705,4.404L31.705,4.404Z" style="fill:rgb(110,161,203);"/>
        </g>
        <g transform="matrix(1,0,0,1,14.79,19.014)">
            <path d="M5.617,46.527L8.073,6.314L0.179,15.077L0.179,41.383L5.617,46.527Z" style="fill:rgb(110,161,203);"/>
        </g>
        <g transform="matrix(1,0,0,1,14.79,19.014)">
            <path d="M72.569,6.314L70.547,41.969L54.3,36.932L72.569,6.314Z" style="fill:rgb(110,161,203);"/>
        </g>
        <g transform="matrix(1,0,0,1,14.79,19.014)">
            <path d="M93.862,14.171L89.793,26.829L75.84,29.776L93.862,14.171L93.862,14.171Z" style="fill:rgb(110,161,203);"/>
        </g>
        <path d="M15.034,89.15L15.034,97.184C15.045,126.355 38.72,150 67.922,150L67.922,150C97.124,150 120.798,126.355 120.81,97.184L120.81,89.15L15.035,89.15L15.034,89.15Z" style="fill:rgb(47,128,170);"/>
        <rect x="15.035" y="52.618" width="105.775" height="36.533" style="fill:rgb(6,141,193);"/>
        <path d="M97.084,141.245L120.71,100.362C120.773,99.311 120.809,98.251 120.809,97.184L120.809,93.83L91.565,144.436C93.474,143.481 95.316,142.415 97.084,141.245M119.525,108.773L103.807,135.972C111.543,128.829 117.139,119.408 119.525,108.773M101.46,89.151L66.309,149.973C66.845,149.99 67.383,150 67.922,150C68.617,150 69.307,149.983 69.996,149.956L105.135,89.151L101.46,89.151L101.46,89.151ZM74.59,89.151L77.512,90.837C77.893,91.057 78.023,91.543 77.804,91.923L77.008,93.3C76.788,93.681 76.301,93.811 75.921,93.591L68.223,89.151L61.856,89.151L74.329,96.345C74.71,96.565 74.84,97.051 74.621,97.431L73.825,98.808C73.605,99.188 73.118,99.319 72.738,99.099L55.49,89.151L49.123,89.151L71.146,101.853C71.526,102.072 71.657,102.558 71.437,102.939L70.641,104.316C70.421,104.696 69.934,104.826 69.554,104.607L42.756,89.151L36.39,89.151L67.963,107.361C68.343,107.58 68.474,108.067 68.254,108.447L67.458,109.824C67.237,110.204 66.751,110.334 66.37,110.115L30.023,89.15L23.657,89.15L64.779,112.869C65.16,113.089 65.29,113.575 65.071,113.955L64.275,115.332C64.055,115.712 63.568,115.843 63.188,115.623L17.291,89.15L15.035,89.15L15.035,91.521L61.596,118.377C61.976,118.597 62.106,119.083 61.887,119.463L61.091,120.84C60.871,121.22 60.384,121.351 60.004,121.131L15.034,95.193L15.034,97.184C15.034,97.753 15.046,98.319 15.064,98.883L58.411,123.886C58.791,124.105 58.922,124.592 58.702,124.972L57.906,126.349C57.686,126.729 57.199,126.86 56.819,126.64L15.321,102.704C15.462,104.055 15.654,105.389 15.895,106.708L55.227,129.394C55.607,129.613 55.738,130.1 55.518,130.48L54.722,131.856C54.501,132.236 54.015,132.367 53.635,132.147L16.85,110.929C17.262,112.455 17.737,113.956 18.279,115.425L52.044,134.901C52.425,135.12 52.555,135.606 52.335,135.987L51.539,137.364C51.319,137.744 50.832,137.874 50.452,137.655L20.363,120.3C21.281,122.179 22.306,123.996 23.432,125.742L48.862,140.41C49.242,140.629 49.373,141.115 49.153,141.496L48.357,142.873C48.137,143.254 47.651,143.383 47.27,143.164L28.419,132.291C34.172,138.743 41.481,143.777 49.762,146.802L83.081,89.15L74.59,89.15L74.59,89.151ZM86.757,89.151L52.851,147.82C53.901,148.132 54.964,148.415 56.04,148.661L90.432,89.151L86.756,89.151L86.757,89.151ZM94.108,89.151L59.345,149.305C60.473,149.489 61.612,149.639 62.763,149.75L97.784,89.151L94.108,89.151L94.108,89.151ZM86.643,146.59L119.838,89.151L116.163,89.151L82.11,148.074C83.651,147.647 85.163,147.15 86.643,146.59M77.862,149.064L112.487,89.151L108.811,89.151L73.837,149.67C75.194,149.518 76.537,149.316 77.862,149.064" style="fill:rgb(0,139,64);"/>
        <path d="M64.274,115.332L65.07,113.955C65.29,113.575 65.159,113.089 64.779,112.869L23.657,89.151L17.29,89.151L63.187,115.623C63.568,115.843 64.055,115.712 64.274,115.332M67.458,109.824L68.254,108.447C68.473,108.067 68.343,107.58 67.962,107.361L36.39,89.151L30.023,89.151L66.371,110.115C66.751,110.335 67.238,110.204 67.458,109.824M61.091,120.841L61.887,119.464C62.107,119.084 61.976,118.598 61.596,118.378L15.034,91.522L15.034,95.194L60.004,121.132C60.384,121.351 60.872,121.222 61.091,120.841M57.908,126.35L58.704,124.973C58.923,124.593 58.793,124.106 58.412,123.887L15.065,98.883C15.106,100.169 15.192,101.443 15.323,102.704L56.821,126.64C57.201,126.859 57.688,126.729 57.908,126.349M54.725,131.857L55.52,130.48C55.74,130.1 55.609,129.613 55.229,129.394L15.897,106.707C16.158,108.136 16.479,109.544 16.852,110.931L53.638,132.148C54.019,132.367 54.506,132.238 54.725,131.857M51.542,137.365L52.338,135.988C52.558,135.608 52.428,135.122 52.047,134.902L18.28,115.426C18.895,117.093 19.592,118.719 20.365,120.301L50.454,137.656C50.835,137.875 51.322,137.745 51.541,137.365M48.358,142.873L49.154,141.496C49.373,141.116 49.243,140.629 48.863,140.41L23.434,125.742C24.925,128.056 26.596,130.244 28.421,132.291L47.271,143.163C47.651,143.382 48.138,143.252 48.358,142.872M103.807,135.971L119.525,108.771C120.138,106.041 120.539,103.231 120.71,100.36L97.084,141.242C99.468,139.665 101.716,137.901 103.807,135.97M91.564,144.433L120.809,93.828L120.809,89.148L119.837,89.148L86.643,146.588C88.326,145.952 89.968,145.232 91.563,144.434M82.109,148.072L116.162,89.148L112.486,89.148L77.861,149.062C79.298,148.789 80.715,148.459 82.108,148.072M108.81,89.149L105.134,89.149L69.994,149.954C71.287,149.903 72.568,149.808 73.836,149.667L108.81,89.148L108.81,89.149ZM97.783,89.149L62.762,149.748C63.933,149.861 65.116,149.936 66.309,149.971L101.459,89.148L97.783,89.148L97.783,89.149ZM90.431,89.149L56.04,148.66C57.129,148.909 58.231,149.123 59.344,149.304L94.107,89.15L90.432,89.15L90.431,89.149ZM83.079,89.149L49.762,146.803C50.777,147.173 51.807,147.51 52.85,147.819L86.756,89.15L83.081,89.15L83.079,89.149Z" style="fill:rgb(0,161,75);"/>
        <path d="M74.021,7.396C74.021,7.848 74.02,8.117 73.938,8.28C74.02,8.117 74.021,7.848 74.021,7.396C74.021,6.507 74.018,4.92 73.391,3.183C74.019,4.919 74.021,6.507 74.021,7.396M77.245,36.421C76.022,34.328 74.966,32.52 74.531,30.997C73.374,26.945 73.268,12.393 73.26,9.047C74.292,8.993 74.551,8.704 74.551,7.397C74.551,6.25 74.551,3.86 73.186,1.475C72.999,1.477 72.823,1.375 72.728,1.213L62.392,1.213C62.297,1.375 62.122,1.477 61.935,1.475C60.569,3.861 60.569,6.25 60.569,7.397C60.569,8.704 60.829,8.993 61.861,9.047C61.852,12.393 61.748,26.945 60.59,30.998C60.155,32.52 59.099,34.328 57.877,36.422C55.623,40.281 52.818,45.084 52.818,50.366L52.818,101.25C52.818,102.806 53.528,103.461 55.532,103.754C57.509,104.042 61.079,104.042 67.56,104.042C74.042,104.042 77.613,104.042 79.589,103.754C81.593,103.462 82.304,102.807 82.304,101.251L82.304,50.365C82.304,45.083 79.499,40.28 77.245,36.421" style="fill:rgb(116,137,42);"/>
        <path d="M72.729,0.152L62.393,0.152C61.821,0.152 61.294,0.459 61.011,0.954C59.509,3.582 59.509,6.158 59.509,7.396C59.509,8.168 59.509,8.965 60.214,9.582C60.4,9.744 60.594,9.858 60.797,9.937C60.763,16.758 60.477,27.532 59.57,30.706C59.172,32.1 58.147,33.854 56.961,35.886C54.643,39.856 51.758,44.796 51.758,50.364L51.758,101.248C51.758,102.656 52.17,104.332 55.381,104.8C57.433,105.099 61.031,105.099 67.563,105.099C74.094,105.099 77.692,105.099 79.745,104.799C82.956,104.331 83.368,102.655 83.368,101.246L83.368,50.364C83.368,44.795 80.483,39.856 78.164,35.885C76.978,33.854 75.953,32.099 75.554,30.705C74.648,27.532 74.362,16.757 74.327,9.936C74.531,9.858 74.725,9.744 74.911,9.581C75.616,8.965 75.616,8.167 75.616,7.396C75.616,6.158 75.616,3.582 74.114,0.954C73.831,0.458 73.304,0.152 72.732,0.152M72.732,1.742C74.025,4.004 74.025,6.265 74.025,7.396C74.025,8.527 74.025,8.527 72.733,8.527C72.733,9.658 72.733,26.619 74.026,31.142C75.318,35.665 81.778,42.449 81.778,50.364L81.778,101.248C81.778,103.51 80.486,103.51 67.565,103.51C54.644,103.51 53.352,103.51 53.352,101.249L53.352,50.365C53.352,42.45 59.813,35.665 61.105,31.143C62.397,26.619 62.397,9.658 62.397,8.528C61.105,8.528 61.105,8.528 61.105,7.397C61.105,6.266 61.105,4.005 62.397,1.743L72.73,1.743" style="fill:rgb(93,119,47);"/>
        <path d="M63.124,103.493C61.307,103.203 60.983,102.351 60.983,101.248L60.983,50.364C60.983,42.448 64.525,35.664 65.817,31.141C67.11,26.618 67.11,9.657 67.11,8.526C65.818,8.526 65.818,8.526 65.818,7.396C65.818,6.265 65.818,4.004 67.111,1.742L64.251,1.742C62.959,4.003 62.959,6.265 62.959,7.396C62.959,8.526 62.959,8.526 64.251,8.526C64.251,9.657 64.251,26.618 62.959,31.141C61.666,35.664 55.206,42.448 55.206,50.364L55.206,101.247C55.206,103.069 56.045,103.423 63.125,103.492" style="fill:rgb(138,151,67);"/>
        <rect x="53.348" y="55.203" width="22.947" height="35.114" style="fill:rgb(255,251,219);"/>
        <rect x="55.205" y="55.203" width="5.778" height="35.114" style="fill:rgb(254,254,254);"/>
        <path d="M41.213,106.955L15.277,106.955C7.719,106.955 1.591,102.704 1.591,97.46C1.591,82.28 19.331,69.973 41.213,69.973" style="fill:rgb(241,183,90);"/>
        <path d="M58.965,106.955L23.462,106.955C18.289,106.955 14.095,102.704 14.095,97.46C14.095,82.28 26.236,69.973 41.214,69.973C56.191,69.973 68.333,82.28 68.333,97.461C68.333,102.705 64.139,106.956 58.965,106.956" style="fill:rgb(255,243,215);"/>
        <path d="M28.354,89.97C28.218,89.97 28.083,89.918 27.979,89.815L26.434,88.27C26.226,88.063 26.226,87.728 26.434,87.521C26.641,87.314 26.976,87.314 27.184,87.521L28.729,89.065C28.937,89.273 28.937,89.608 28.729,89.815C28.626,89.918 28.49,89.97 28.354,89.97M30.657,89.97C30.521,89.97 30.385,89.918 30.282,89.815L28.736,88.27C28.529,88.063 28.529,87.728 28.736,87.521C28.944,87.314 29.279,87.314 29.487,87.521L31.033,89.065C31.241,89.273 31.241,89.608 31.033,89.815C30.93,89.918 30.794,89.97 30.658,89.97M56.39,99.604C56.255,99.604 56.119,99.552 56.015,99.449L54.47,97.905C54.263,97.698 54.263,97.363 54.47,97.156C54.678,96.948 55.013,96.948 55.221,97.156L56.767,98.7C56.975,98.907 56.975,99.242 56.767,99.449C56.664,99.552 56.528,99.604 56.392,99.604M58.695,99.604C58.559,99.604 58.424,99.552 58.32,99.449L56.775,97.905C56.568,97.698 56.568,97.363 56.775,97.156C56.983,96.948 57.318,96.948 57.525,97.156L59.071,98.7C59.278,98.907 59.278,99.242 59.071,99.449C58.967,99.552 58.831,99.604 58.696,99.604M48.04,78.358C47.904,78.358 47.768,78.306 47.665,78.203L46.119,76.659C45.911,76.452 45.911,76.117 46.119,75.91C46.326,75.703 46.662,75.703 46.869,75.91L48.415,77.455C48.623,77.663 48.623,77.998 48.415,78.205C48.312,78.309 48.176,78.361 48.04,78.361" style="fill:rgb(245,223,176);"/>
        <path d="M9.654,90.209C9.639,90.209 9.623,90.208 9.608,90.205C9.478,90.182 9.384,90.067 9.389,89.935C9.39,89.907 9.493,87.07 10.371,83.83C11.54,79.511 13.551,76.43 16.185,74.92C20.687,72.34 23.707,71.711 23.833,71.685C23.957,71.658 24.076,71.722 24.127,71.834C24.178,71.946 24.146,72.078 24.049,72.154C15.426,78.872 12.253,82.881 9.906,90.027C9.87,90.137 9.767,90.209 9.654,90.209" style="fill:rgb(248,217,161);"/>
        <path d="M41.214,68.383C30.309,68.383 20.036,71.342 12.289,76.717C4.364,82.215 0,89.582 0,97.46C0,100.532 1.666,103.381 4.692,105.48C7.541,107.456 11.3,108.545 15.278,108.545L58.965,108.545C65.008,108.545 69.924,103.573 69.924,97.46C69.924,81.427 57.045,68.383 41.214,68.383M41.214,69.973C56.191,69.973 68.333,82.279 68.333,97.46C68.333,102.704 64.139,106.955 58.965,106.955L15.278,106.955C7.719,106.955 1.592,102.704 1.592,97.46C1.592,82.279 19.331,69.973 41.214,69.973" style="fill:rgb(209,145,55);"/>
        <path d="M41.214,68.383C30.309,68.383 20.036,71.342 12.289,76.717C4.364,82.215 0,89.582 0,97.46C0,100.532 1.666,103.381 4.692,105.48C7.541,107.456 11.3,108.545 15.278,108.545L58.965,108.545C65.008,108.545 69.924,103.573 69.924,97.46C69.924,81.427 57.045,68.383 41.214,68.383M41.214,69.973C56.191,69.973 68.333,82.279 68.333,97.46C68.333,102.704 64.139,106.955 58.965,106.955L15.278,106.955C7.719,106.955 1.592,102.704 1.592,97.46C1.592,82.279 19.331,69.973 41.214,69.973" style="fill:rgb(209,145,55);"/>
        <path d="M114.684,56.774L93.709,56.774C93.039,56.774 92.442,57.192 92.213,57.82L74.51,106.411C74.332,106.898 74.404,107.442 74.702,107.867C75,108.292 75.486,108.545 76.006,108.545L96.981,108.545L132.905,108.542C133.784,108.542 134.496,107.83 134.496,106.952C134.496,88.693 127.886,71.066 115.884,57.319C115.581,56.973 115.144,56.774 114.684,56.774" style="fill:rgb(212,164,100);"/>
        <path d="M96.982,106.955L76.006,106.955L93.708,58.364L114.684,58.364L96.982,106.955Z" style="fill:rgb(255,239,175);"/>
        <path d="M132.905,106.952C132.905,88.353 126.03,71.36 114.684,58.364L96.982,106.955L132.905,106.952L132.905,106.952Z" style="fill:rgb(232,186,111);"/>
        <path d="M100.514,83.817C100.312,85.12 99.092,86.175 97.789,86.175C96.485,86.175 95.592,85.119 95.793,83.817C95.994,82.515 97.214,81.459 98.517,81.459C99.82,81.459 100.714,82.515 100.513,83.817M84.875,101.918C84.769,102.599 84.131,103.152 83.45,103.152C82.768,103.152 82.301,102.599 82.406,101.918C82.511,101.237 83.149,100.685 83.831,100.685C84.513,100.685 84.98,101.237 84.874,101.918M102.426,70.85C102.32,71.531 101.683,72.084 101.001,72.084C100.319,72.084 99.852,71.531 99.957,70.85C100.062,70.169 100.7,69.617 101.382,69.617C102.064,69.617 102.531,70.169 102.425,70.85M94.56,63.91C94.51,64.235 94.205,64.499 93.879,64.499C93.554,64.499 93.33,64.235 93.381,63.909C93.43,63.583 93.736,63.32 94.062,63.32C94.388,63.32 94.611,63.584 94.56,63.909M104.17,69.026C104.12,69.351 103.815,69.615 103.489,69.615C103.163,69.615 102.94,69.351 102.99,69.025C103.04,68.699 103.345,68.435 103.672,68.435C103.997,68.435 104.221,68.699 104.17,69.024M96.268,62.941C96.218,63.266 95.913,63.53 95.587,63.53C95.261,63.53 95.038,63.266 95.088,62.94C95.138,62.615 95.443,62.351 95.769,62.351C96.095,62.351 96.319,62.615 96.268,62.94M95.671,86.761C95.621,87.087 95.316,87.351 94.99,87.351C94.664,87.351 94.441,87.087 94.491,86.761C94.541,86.435 94.846,86.171 95.172,86.171C95.498,86.171 95.721,86.435 95.671,86.76" style="fill:rgb(255,249,199);"/>
    </g>
</svg>
