<?xml version="1.0" encoding="UTF-8" standalone="no"?>
<svg width="24px" height="92px" viewBox="0 0 24 92" version="1.1" xmlns="http://www.w3.org/2000/svg" xmlns:xlink="http://www.w3.org/1999/xlink" xmlns:sketch="http://www.bohemiancoding.com/sketch/ns">
    <!-- Generator: Sketch 3.3.2 (12043) - http://www.bohemiancoding.com/sketch -->
    <title>Pot</title>
    <desc>Created with Sketch.</desc>
    <defs></defs>
    <g id="Page-1" stroke="none" stroke-width="1" fill="none" fill-rule="evenodd" sketch:type="MSPage">
        <path d="M23,44 C23,37 18,31 17,27 C16,23 16,8 16,7 C17,7 17,7 17,6 C17,5 17,3 16,1 L8,1 C7,3 7,5 7,6 C7,7 7,7 8,7 C8,8 8,23 7,27 C6,31 1,37 1,44 C1,51 1,80 1,89 C1,91 2,91 12,91 C22,91 22.9999998,91 22.9999998,89 C23,80 23,51 23,44 Z" id="Pot" stroke="#000000" fill="#000000" sketch:type="MSShapeGroup"></path>
    </g>
</svg>