<?xml version="1.0" encoding="UTF-8" standalone="no"?>
<svg width="314px" height="150px" viewBox="0 0 314 150" version="1.1" xmlns="http://www.w3.org/2000/svg" xmlns:xlink="http://www.w3.org/1999/xlink" xmlns:sketch="http://www.bohemiancoding.com/sketch/ns">
    <!-- Generator: Sketch 3.4.4 (17249) - http://www.bohemiancoding.com/sketch -->
    <title>Group</title>
    <desc>Created with Sketch.</desc>
    <defs></defs>
    <g id="Page-1" stroke="none" stroke-width="1" fill="none" fill-rule="evenodd" sketch:type="MSPage">
        <g id="Group" sketch:type="MSLayerGroup">
            <path d="M157.208,7.944 L154.073,7.944 L154.073,28.648 L157.208,28.648 C158.95,28.648 160.343,27.256 160.343,25.516 L160.343,11.076 C160.343,9.336 158.95,7.944 157.208,7.944 L157.208,7.944 Z M164.523,11.076 L164.523,25.516 C164.523,29.562 161.258,32.824 157.208,32.824 L151.984,32.824 C150.808,32.824 149.894,31.91 149.894,30.736 L149.894,5.856 C149.894,4.681 150.808,3.767 151.984,3.767 L157.208,3.767 C161.258,3.767 164.523,7.03 164.523,11.076 L164.523,11.076 L164.523,11.076 Z M174.685,28.822 C176.382,28.822 177.82,27.43 177.82,25.69 L177.82,5.681 C177.82,4.507 178.734,3.594 179.909,3.594 C181.085,3.594 181.999,4.507 181.999,5.681 L181.999,25.69 C181.999,29.736 178.69,32.998 174.685,32.998 C170.635,32.998 167.37,29.736 167.37,25.69 L167.37,5.681 C167.37,4.507 168.284,3.594 169.46,3.594 C170.635,3.594 171.55,4.507 171.55,5.681 L171.55,25.69 C171.55,27.43 172.943,28.822 174.685,28.822 L174.685,28.822 L174.685,28.822 Z M194.537,3.681 C195.626,3.376 196.801,4.029 197.106,5.116 C197.672,7.161 198.238,9.249 198.804,11.336 C199.806,14.947 201.025,19.383 202.07,23.081 C203.071,19.383 204.29,14.947 205.291,11.336 C205.857,9.248 206.423,7.16 206.989,5.115 C207.294,4.028 208.47,3.375 209.558,3.68 C210.734,3.984 211.343,5.072 211.038,6.246 L204.072,31.474 C203.767,32.387 202.983,32.996 202.069,32.996 C201.067,32.996 200.327,32.387 200.022,31.474 L193.056,6.247 C192.751,5.072 193.361,3.984 194.536,3.68 L194.537,3.681 L194.537,3.681 Z M213.089,30.91 L213.089,5.681 C213.089,4.507 214.003,3.594 215.178,3.594 C216.355,3.594 217.269,4.508 217.269,5.682 L217.269,30.91 C217.269,32.085 216.355,32.998 215.178,32.998 C214.003,32.998 213.089,32.085 213.089,30.91 L213.089,30.91 L213.089,30.91 Z M233.043,31.823 C232.172,29.953 231.257,28.083 230.3,26.125 C228.689,22.819 226.599,18.601 224.814,14.816 L224.814,30.91 C224.814,32.085 223.899,32.998 222.723,32.998 C221.548,32.998 220.633,32.085 220.633,30.91 L220.633,5.682 C220.633,4.682 221.243,3.855 222.245,3.637 C223.246,3.42 224.117,3.898 224.596,4.768 C225.467,6.639 226.381,8.509 227.339,10.466 C228.95,13.772 230.953,17.992 232.825,21.776 L232.825,5.681 C232.825,4.507 233.739,3.594 234.914,3.594 C236.089,3.594 237.004,4.507 237.004,5.681 L237.004,30.91 C237.004,31.91 236.308,32.737 235.393,32.954 C234.392,33.172 233.433,32.693 233.042,31.823 L233.043,31.823 L233.043,31.823 Z M157.208,43.621 L154.073,43.621 L154.073,64.326 L157.208,64.326 C158.95,64.326 160.343,62.934 160.343,61.194 L160.343,46.753 C160.343,45.013 158.95,43.621 157.208,43.621 L157.208,43.621 Z M164.523,46.753 L164.523,61.194 C164.523,65.239 161.257,68.501 157.208,68.501 L151.983,68.501 C150.808,68.501 149.893,67.588 149.893,66.414 L149.893,41.533 C149.893,40.359 150.808,39.445 151.983,39.445 L157.208,39.445 C161.257,39.445 164.522,42.707 164.522,46.753 L164.523,46.753 L164.523,46.753 Z M174.684,64.499 C176.381,64.499 177.819,63.107 177.819,61.367 L177.819,41.359 C177.819,40.185 178.733,39.271 179.909,39.271 C181.084,39.271 181.998,40.185 181.998,41.359 L181.998,61.367 C181.998,65.413 178.689,68.676 174.684,68.676 C170.634,68.676 167.369,65.413 167.369,61.367 L167.369,41.359 C167.369,40.185 168.283,39.271 169.458,39.271 C170.633,39.271 171.548,40.185 171.548,41.359 L171.548,61.367 C171.548,63.107 172.941,64.499 174.683,64.499 L174.684,64.499 L174.684,64.499 Z M194.536,66.414 L194.536,41.533 C194.536,40.359 195.45,39.445 196.625,39.445 L205.333,39.445 C206.508,39.445 207.422,40.359 207.422,41.533 C207.422,42.708 206.508,43.621 205.332,43.621 L198.714,43.621 L198.714,51.451 L204.461,51.451 C205.636,51.451 206.55,52.364 206.55,53.54 C206.55,54.714 205.636,55.628 204.46,55.628 L198.713,55.628 L198.713,66.415 C198.713,67.589 197.799,68.503 196.623,68.503 C195.448,68.503 194.533,67.59 194.533,66.416 L194.536,66.414 L194.536,66.414 Z M217.154,52.32 C218.896,52.32 220.289,50.928 220.289,49.188 L220.289,46.753 C220.289,45.013 218.896,43.621 217.154,43.621 L214.019,43.621 L214.019,52.32 L217.154,52.32 L217.154,52.32 Z M220.55,55.67 L224.337,65.848 C224.816,66.935 224.206,68.153 223.118,68.545 C222.029,68.936 220.898,68.414 220.419,67.327 L216.37,56.496 L214.019,56.496 L214.019,66.587 C214.019,67.762 213.105,68.675 211.929,68.675 C210.754,68.675 209.839,67.762 209.839,66.587 L209.839,41.533 C209.839,40.359 210.754,39.445 211.929,39.445 L217.154,39.445 C221.203,39.445 224.469,42.708 224.469,46.753 L224.469,49.188 C224.469,52.015 222.945,54.451 220.55,55.669 L220.55,55.67 L220.55,55.67 Z M230.887,46.579 L230.887,61.368 C230.887,63.108 232.28,64.5 234.022,64.5 C235.763,64.5 237.156,63.108 237.156,61.368 L237.156,46.579 C237.156,44.839 235.762,43.447 234.021,43.447 C232.279,43.447 230.886,44.839 230.886,46.579 L230.887,46.579 L230.887,46.579 Z M226.707,61.368 L226.707,46.579 C226.707,42.533 229.972,39.272 234.021,39.272 C238.07,39.272 241.335,42.534 241.335,46.579 L241.335,61.368 C241.335,65.413 238.069,68.675 234.02,68.675 C229.97,68.675 226.705,65.413 226.705,61.368 L226.707,61.368 L226.707,61.368 Z M244.378,66.587 L244.378,41.359 C244.378,40.359 244.987,39.532 245.989,39.315 C246.99,39.097 247.948,39.575 248.34,40.49 C248.906,41.751 249.515,43.012 250.125,44.274 C251.126,46.492 252.433,49.102 253.434,51.233 C254.436,49.102 255.698,46.492 256.699,44.274 C257.264,43.012 257.874,41.75 258.484,40.49 C258.963,39.575 259.833,39.097 260.835,39.315 C261.836,39.532 262.489,40.359 262.489,41.359 L262.489,66.587 C262.489,67.762 261.575,68.675 260.399,68.675 C259.224,68.675 258.309,67.762 258.309,66.587 L258.309,50.711 C257.569,52.277 256.828,53.843 256.262,55.017 C255.957,55.713 255.609,56.366 255.304,57.018 C254.956,57.758 254.259,58.236 253.432,58.236 C252.518,58.236 251.908,57.845 251.516,57.018 C251.212,56.366 250.863,55.713 250.559,55.017 C249.993,53.843 249.252,52.277 248.556,50.711 L248.556,66.587 C248.556,67.762 247.641,68.675 246.466,68.675 C245.291,68.675 244.376,67.762 244.376,66.587 L244.378,66.587 L244.378,66.587 Z M273.4,49.232 C272.573,52.06 271.702,55.409 270.875,58.41 L275.925,58.41 C275.098,55.409 274.227,52.06 273.4,49.232 L273.4,49.232 L273.4,49.232 Z M280.933,68.588 C279.757,68.893 278.668,68.241 278.364,67.153 C278.233,66.805 278.145,66.37 278.015,65.892 C277.798,65.065 277.45,63.934 277.101,62.586 L269.7,62.586 C269.309,63.934 269.004,65.065 268.786,65.892 C268.656,66.37 268.568,66.805 268.438,67.153 C268.133,68.241 267.044,68.893 265.869,68.588 C264.78,68.284 264.127,67.196 264.432,66.022 L271.398,40.793 C271.616,39.88 272.399,39.271 273.401,39.271 C274.403,39.271 275.186,39.879 275.404,40.792 L282.371,66.02 C282.676,67.194 282.022,68.281 280.934,68.586 L280.933,68.588 L280.933,68.588 Z M298.225,54.408 L298.225,61.368 C298.225,65.413 294.96,68.675 290.91,68.675 C286.905,68.675 283.596,65.413 283.596,61.368 L283.596,46.579 C283.596,43.273 285.772,40.359 289.038,39.532 C292.216,38.706 295.612,40.01 297.267,42.925 C297.833,43.926 297.485,45.143 296.483,45.796 C295.482,46.361 294.219,46.013 293.653,45.013 C292.913,43.795 291.476,43.186 290.126,43.577 C288.732,43.926 287.774,45.187 287.774,46.579 L287.774,61.368 C287.774,63.108 289.211,64.5 290.909,64.5 C292.651,64.5 294.043,63.109 294.043,61.369 L294.043,56.497 L291.78,56.497 C290.605,56.497 289.69,55.584 289.69,54.41 C289.69,53.236 290.605,52.322 291.78,52.322 L296.134,52.322 C297.31,52.322 298.224,53.236 298.224,54.41 L298.225,54.408 L298.225,54.408 Z M303.201,39.445 L311.909,39.445 C313.084,39.445 313.998,40.359 313.998,41.533 C313.998,42.708 313.084,43.622 311.908,43.622 L305.29,43.622 L305.29,51.451 L311.037,51.451 C312.213,51.451 313.128,52.364 313.128,53.539 C313.128,54.714 312.213,55.628 311.038,55.628 L305.291,55.628 L305.291,64.327 L311.909,64.327 C313.085,64.327 313.999,65.241 313.999,66.416 C313.999,67.59 313.085,68.504 311.909,68.504 L303.2,68.504 C302.025,68.504 301.11,67.591 301.11,66.417 L301.11,41.533 C301.11,40.359 302.025,39.445 303.2,39.445 L303.201,39.445 L303.201,39.445 Z M151.983,75.123 L160.691,75.123 C161.867,75.123 162.781,76.037 162.781,77.211 C162.781,78.386 161.867,79.299 160.691,79.299 L154.073,79.299 L154.073,87.128 L159.82,87.128 C160.995,87.128 161.91,88.042 161.91,89.216 C161.91,90.391 160.995,91.304 159.82,91.304 L154.073,91.304 L154.073,100.003 L160.691,100.003 C161.866,100.003 162.781,100.917 162.781,102.092 C162.781,103.266 161.867,104.179 160.691,104.179 L151.983,104.179 C150.808,104.179 149.893,103.266 149.893,102.092 L149.893,77.211 C149.893,76.037 150.807,75.123 151.983,75.123 L151.983,75.123 L151.983,75.123 Z M180.07,77.211 C180.07,78.386 179.155,79.299 177.98,79.299 L174.41,79.299 L174.41,102.265 C174.41,103.44 173.495,104.354 172.32,104.354 C171.145,104.354 170.23,103.44 170.23,102.265 L170.23,79.298 L166.659,79.298 C165.484,79.298 164.57,78.385 164.57,77.211 C164.57,76.037 165.484,75.123 166.659,75.123 L177.98,75.123 C179.156,75.123 180.07,76.037 180.07,77.211 L180.07,77.211 L180.07,77.211 Z M198.529,79.299 L195.394,79.299 L195.394,100.004 L198.529,100.004 C200.271,100.004 201.664,98.611 201.664,96.872 L201.664,82.431 C201.664,80.691 200.271,79.299 198.529,79.299 L198.529,79.299 L198.529,79.299 Z M205.843,82.431 L205.843,96.872 C205.843,100.917 202.578,104.179 198.529,104.179 L193.304,104.179 C192.129,104.179 191.214,103.265 191.214,102.091 L191.214,77.211 C191.214,76.036 192.128,75.123 193.304,75.123 L198.529,75.123 C202.578,75.123 205.843,78.386 205.843,82.431 L205.843,82.431 L205.843,82.431 Z M216.005,100.177 C217.703,100.177 219.14,98.785 219.14,97.045 L219.14,77.036 C219.14,75.862 220.054,74.949 221.23,74.949 C222.405,74.949 223.319,75.862 223.319,77.036 L223.319,97.045 C223.319,101.091 220.011,104.353 216.005,104.353 C211.956,104.353 208.691,101.091 208.691,97.045 L208.691,77.036 C208.691,75.862 209.605,74.949 210.781,74.949 C211.957,74.949 212.871,75.862 212.871,77.036 L212.871,97.045 C212.871,98.785 214.265,100.177 216.006,100.177 L216.005,100.177 L216.005,100.177 Z M243.173,79.299 L240.038,79.299 L240.038,87.999 L243.173,87.999 C244.915,87.999 246.308,86.606 246.308,84.867 L246.308,82.431 C246.308,80.691 244.915,79.299 243.173,79.299 L243.173,79.299 L243.173,79.299 Z M237.948,75.123 L243.173,75.123 C247.222,75.123 250.488,78.386 250.488,82.431 L250.488,84.867 C250.488,88.912 247.222,92.174 243.173,92.174 L240.038,92.174 L240.038,102.266 C240.038,103.44 239.124,104.353 237.948,104.353 C236.773,104.353 235.858,103.44 235.858,102.265 L235.858,77.211 C235.858,76.036 236.773,75.123 237.948,75.123 L237.948,75.123 L237.948,75.123 Z M257.752,84.91 C256.925,87.738 256.054,91.087 255.227,94.088 L260.277,94.088 C259.45,91.087 258.58,87.738 257.752,84.91 L257.752,84.91 L257.752,84.91 Z M265.285,104.266 C264.109,104.571 263.021,103.919 262.716,102.831 C262.585,102.483 262.498,102.048 262.367,101.57 C262.15,100.743 261.802,99.612 261.453,98.264 L254.052,98.264 C253.661,99.612 253.356,100.743 253.138,101.57 C253.008,102.048 252.92,102.483 252.789,102.831 C252.484,103.919 251.396,104.571 250.22,104.267 C249.132,103.962 248.478,102.875 248.784,101.701 L255.75,76.473 C255.968,75.56 256.751,74.951 257.753,74.951 C258.755,74.951 259.539,75.56 259.756,76.473 L266.723,101.702 C267.028,102.877 266.375,103.964 265.286,104.269 L265.285,104.266 L265.285,104.266 Z M268.636,102.265 L268.636,77.036 C268.636,75.862 269.55,74.949 270.725,74.949 C271.902,74.949 272.816,75.863 272.816,77.037 L272.816,102.266 C272.816,103.441 271.902,104.354 270.726,104.354 C269.551,104.354 268.636,103.441 268.636,102.266 L268.636,102.265 L268.636,102.265 Z M288.59,103.179 C287.719,101.308 286.804,99.438 285.847,97.481 C284.236,94.175 282.146,89.956 280.361,86.172 L280.361,102.266 C280.361,103.44 279.446,104.354 278.27,104.354 C277.095,104.354 276.181,103.44 276.181,102.266 L276.181,77.037 C276.181,76.037 276.791,75.21 277.792,74.992 C278.793,74.775 279.664,75.253 280.143,76.123 C281.014,77.994 281.928,79.864 282.886,81.821 C284.498,85.127 286.5,89.347 288.373,93.131 L288.373,77.037 C288.373,75.863 289.287,74.95 290.463,74.95 C291.639,74.95 292.553,75.863 292.553,77.037 L292.553,102.266 C292.553,103.266 291.857,104.092 290.942,104.31 C289.941,104.527 288.983,104.048 288.591,103.179 L288.59,103.179 L288.59,103.179 Z" id="Shape" fill="#000000" sketch:type="MSShapeGroup"></path>
            <path d="M41.214,68.383 C30.309,68.383 20.036,71.342 12.289,76.717 C4.364,82.215 0,89.582 0,97.46 C0,100.532 1.666,103.381 4.692,105.48 C7.541,107.456 11.3,108.545 15.278,108.545 L58.965,108.545 C65.008,108.545 69.924,103.573 69.924,97.46 C69.924,81.427 57.045,68.383 41.214,68.383" id="Shape" fill="#D19137" sketch:type="MSShapeGroup"></path>
            <rect id="Rectangle-path" fill="#BDE2F1" sketch:type="MSShapeGroup" x="15.035" y="3.796" width="105.775" height="85.354"></rect>
            <rect id="Rectangle-path" fill="#A2D8EF" sketch:type="MSShapeGroup" x="15.035" y="9.806" width="105.775" height="9.015"></rect>
            <rect id="Rectangle-path" fill="#84CFEC" sketch:type="MSShapeGroup" x="15.035" y="18.821" width="105.775" height="13.522"></rect>
            <rect id="Rectangle-path" fill="#5DC4E9" sketch:type="MSShapeGroup" x="15.035" y="32.342" width="105.775" height="20.283"></rect>
            <path d="M120.809,55.475 L120.809,44.087 L120.05,43.661 C119.728,43.482 119.338,43.469 119.005,43.629 L118.24,43.998 C117.727,44.244 117.111,44.073 116.8,43.597 L110.21,33.506 C110.144,33.407 110.064,33.318 109.97,33.242 L108.78,32.288 C108.397,31.981 107.86,31.956 107.45,32.225 L106.358,32.941 C105.976,33.192 105.48,33.189 105.102,32.932 L99.43,29.095 C99.007,28.809 98.444,28.841 98.057,29.174 L96.421,30.579 C95.98,30.958 95.324,30.942 94.903,30.542 L88.153,24.132 C87.694,23.695 86.965,23.721 86.538,24.188 L85.377,25.458 C85.088,25.774 84.645,25.9 84.233,25.783 L74.695,23.084 C74.142,22.928 73.561,23.209 73.341,23.738 L72.99,24.583 C72.696,25.288 71.799,25.509 71.211,25.011 C70.774,24.641 70.107,24.728 69.705,25.135 L66.9,27.977 C66.533,28.349 65.958,28.421 65.511,28.152 L58,23.633 C57.692,23.448 57.314,23.42 56.982,23.557 L52.024,25.613 C51.495,25.833 50.886,25.623 50.604,25.125 L47.918,20.372 C47.557,19.735 46.694,19.603 46.159,20.103 L44.018,22.107 C43.591,22.506 42.93,22.515 42.493,22.127 L39.534,19.504 C39.261,19.263 38.89,19.167 38.534,19.247 L22.994,22.736 C22.778,22.784 22.581,22.895 22.428,23.054 L15.034,30.713 L15.034,55.475 L15.034,55.475 L15.034,70.801 L120.809,70.801 L120.809,55.475 L120.809,55.475 L120.809,55.475 Z" id="Shape" fill="#5F99C6" sketch:type="MSShapeGroup"></path>
            <g transform="translate(29.790000, 23.014000)" id="Shape" fill="#6EA1CB" sketch:type="MSShapeGroup">
                <path d="M16.705,0.404 L12.468,41.432 L0.835,34.111 L16.705,0.404 L16.705,0.404 L16.705,0.404 Z"></path>
            </g>
            <g transform="translate(14.790000, 25.014000)" id="Shape" fill="#6EA1CB" sketch:type="MSShapeGroup">
                <path d="M5.617,40.527 L8.073,0.314 L0.179,9.077 L0.179,35.383 L5.617,40.527 L5.617,40.527 Z"></path>
            </g>
            <g transform="translate(68.790000, 25.014000)" id="Shape" fill="#6EA1CB" sketch:type="MSShapeGroup">
                <path d="M18.569,0.314 L16.547,35.969 L0.3,30.932 L18.569,0.314 L18.569,0.314 Z"></path>
            </g>
            <g transform="translate(89.790000, 33.014000)" id="Shape" fill="#6EA1CB" sketch:type="MSShapeGroup">
                <path d="M18.862,0.171 L14.793,12.829 L0.84,15.776 L18.862,0.171 L18.862,0.171 L18.862,0.171 Z"></path>
            </g>
            <path d="M15.034,89.15 L15.034,97.184 C15.045,126.355 38.72,150 67.922,150 L67.922,150 C97.124,150 120.798,126.355 120.81,97.184 L120.81,89.15 L15.035,89.15 L15.034,89.15 L15.034,89.15 Z" id="Shape" fill="#2F80AA" sketch:type="MSShapeGroup"></path>
            <rect id="Rectangle-path" fill="#068DC1" sketch:type="MSShapeGroup" x="15.035" y="52.618" width="105.775" height="36.533"></rect>
            <path d="M97.084,141.245 L120.71,100.362 C120.773,99.311 120.809,98.251 120.809,97.184 L120.809,93.83 L91.565,144.436 C93.474,143.481 95.316,142.415 97.084,141.245 L97.084,141.245 Z M119.525,108.773 L103.807,135.972 C111.543,128.829 117.139,119.408 119.525,108.773 L119.525,108.773 Z M101.46,89.151 L66.309,149.973 C66.845,149.99 67.383,150 67.922,150 C68.617,150 69.307,149.983 69.996,149.956 L105.135,89.151 L101.46,89.151 L101.46,89.151 L101.46,89.151 Z M74.59,89.151 L77.512,90.837 C77.893,91.057 78.023,91.543 77.804,91.923 L77.008,93.3 C76.788,93.681 76.301,93.811 75.921,93.591 L68.223,89.151 L61.856,89.151 L74.329,96.345 C74.71,96.565 74.84,97.051 74.621,97.431 L73.825,98.808 C73.605,99.188 73.118,99.319 72.738,99.099 L55.49,89.151 L49.123,89.151 L71.146,101.853 C71.526,102.072 71.657,102.558 71.437,102.939 L70.641,104.316 C70.421,104.696 69.934,104.826 69.554,104.607 L42.756,89.151 L36.39,89.151 L67.963,107.361 C68.343,107.58 68.474,108.067 68.254,108.447 L67.458,109.824 C67.237,110.204 66.751,110.334 66.37,110.115 L30.023,89.15 L23.657,89.15 L64.779,112.869 C65.16,113.089 65.29,113.575 65.071,113.955 L64.275,115.332 C64.055,115.712 63.568,115.843 63.188,115.623 L17.291,89.15 L15.035,89.15 L15.035,91.521 L61.596,118.377 C61.976,118.597 62.106,119.083 61.887,119.463 L61.091,120.84 C60.871,121.22 60.384,121.351 60.004,121.131 L15.034,95.193 L15.034,97.184 C15.034,97.753 15.046,98.319 15.064,98.883 L58.411,123.886 C58.791,124.105 58.922,124.592 58.702,124.972 L57.906,126.349 C57.686,126.729 57.199,126.86 56.819,126.64 L15.321,102.704 C15.462,104.055 15.654,105.389 15.895,106.708 L55.227,129.394 C55.607,129.613 55.738,130.1 55.518,130.48 L54.722,131.856 C54.501,132.236 54.015,132.367 53.635,132.147 L16.85,110.929 C17.262,112.455 17.737,113.956 18.279,115.425 L52.044,134.901 C52.425,135.12 52.555,135.606 52.335,135.987 L51.539,137.364 C51.319,137.744 50.832,137.874 50.452,137.655 L20.363,120.3 C21.281,122.179 22.306,123.996 23.432,125.742 L48.862,140.41 C49.242,140.629 49.373,141.115 49.153,141.496 L48.357,142.873 C48.137,143.254 47.651,143.383 47.27,143.164 L28.419,132.291 C34.172,138.743 41.481,143.777 49.762,146.802 L83.081,89.15 L74.59,89.15 L74.59,89.151 L74.59,89.151 Z M86.757,89.151 L52.851,147.82 C53.901,148.132 54.964,148.415 56.04,148.661 L90.432,89.151 L86.756,89.151 L86.757,89.151 L86.757,89.151 Z M94.108,89.151 L59.345,149.305 C60.473,149.489 61.612,149.639 62.763,149.75 L97.784,89.151 L94.108,89.151 L94.108,89.151 L94.108,89.151 Z M86.643,146.59 L119.838,89.151 L116.163,89.151 L82.11,148.074 C83.651,147.647 85.163,147.15 86.643,146.59 L86.643,146.59 Z M77.862,149.064 L112.487,89.151 L108.811,89.151 L73.837,149.67 C75.194,149.518 76.537,149.316 77.862,149.064 L77.862,149.064 Z" id="Shape" fill="#008B40" sketch:type="MSShapeGroup"></path>
            <path d="M64.274,115.332 L65.07,113.955 C65.29,113.575 65.159,113.089 64.779,112.869 L23.657,89.151 L17.29,89.151 L63.187,115.623 C63.568,115.843 64.055,115.712 64.274,115.332 L64.274,115.332 Z M67.458,109.824 L68.254,108.447 C68.473,108.067 68.343,107.58 67.962,107.361 L36.39,89.151 L30.023,89.151 L66.371,110.115 C66.751,110.335 67.238,110.204 67.458,109.824 L67.458,109.824 Z M61.091,120.841 L61.887,119.464 C62.107,119.084 61.976,118.598 61.596,118.378 L15.034,91.522 L15.034,95.194 L60.004,121.132 C60.384,121.351 60.872,121.222 61.091,120.841 L61.091,120.841 Z M57.908,126.35 L58.704,124.973 C58.923,124.593 58.793,124.106 58.412,123.887 L15.065,98.883 C15.106,100.169 15.192,101.443 15.323,102.704 L56.821,126.64 C57.201,126.859 57.688,126.729 57.908,126.349 L57.908,126.35 Z M54.725,131.857 L55.52,130.48 C55.74,130.1 55.609,129.613 55.229,129.394 L15.897,106.707 C16.158,108.136 16.479,109.544 16.852,110.931 L53.638,132.148 C54.019,132.367 54.506,132.238 54.725,131.857 L54.725,131.857 Z M51.542,137.365 L52.338,135.988 C52.558,135.608 52.428,135.122 52.047,134.902 L18.28,115.426 C18.895,117.093 19.592,118.719 20.365,120.301 L50.454,137.656 C50.835,137.875 51.322,137.745 51.541,137.365 L51.542,137.365 Z M48.358,142.873 L49.154,141.496 C49.373,141.116 49.243,140.629 48.863,140.41 L23.434,125.742 C24.925,128.056 26.596,130.244 28.421,132.291 L47.271,143.163 C47.651,143.382 48.138,143.252 48.358,142.872 L48.358,142.873 Z M103.807,135.971 L119.525,108.771 C120.138,106.041 120.539,103.231 120.71,100.36 L97.084,141.242 C99.468,139.665 101.716,137.901 103.807,135.97 L103.807,135.971 Z M91.564,144.433 L120.809,93.828 L120.809,89.148 L119.837,89.148 L86.643,146.588 C88.326,145.952 89.968,145.232 91.563,144.434 L91.564,144.433 Z M82.109,148.072 L116.162,89.148 L112.486,89.148 L77.861,149.062 C79.298,148.789 80.715,148.459 82.108,148.072 L82.109,148.072 Z M108.81,89.149 L105.134,89.149 L69.994,149.954 C71.287,149.903 72.568,149.808 73.836,149.667 L108.81,89.148 L108.81,89.149 L108.81,89.149 Z M97.783,89.149 L62.762,149.748 C63.933,149.861 65.116,149.936 66.309,149.971 L101.459,89.148 L97.783,89.148 L97.783,89.149 L97.783,89.149 Z M90.431,89.149 L56.04,148.66 C57.129,148.909 58.231,149.123 59.344,149.304 L94.107,89.15 L90.432,89.15 L90.431,89.149 L90.431,89.149 Z M83.079,89.149 L49.762,146.803 C50.777,147.173 51.807,147.51 52.85,147.819 L86.756,89.15 L83.081,89.15 L83.079,89.149 L83.079,89.149 Z" id="Shape" fill="#00A14B" sketch:type="MSShapeGroup"></path>
            <path d="M74.021,7.396 C74.021,7.848 74.02,8.117 73.938,8.28 C74.02,8.117 74.021,7.848 74.021,7.396 C74.021,6.507 74.018,4.92 73.391,3.183 C74.019,4.919 74.021,6.507 74.021,7.396 M77.245,36.421 C76.022,34.328 74.966,32.52 74.531,30.997 C73.374,26.945 73.268,12.393 73.26,9.047 C74.292,8.993 74.551,8.704 74.551,7.397 C74.551,6.25 74.551,3.86 73.186,1.475 C72.999,1.477 72.823,1.375 72.728,1.213 L62.392,1.213 C62.297,1.375 62.122,1.477 61.935,1.475 C60.569,3.861 60.569,6.25 60.569,7.397 C60.569,8.704 60.829,8.993 61.861,9.047 C61.852,12.393 61.748,26.945 60.59,30.998 C60.155,32.52 59.099,34.328 57.877,36.422 C55.623,40.281 52.818,45.084 52.818,50.366 L52.818,101.25 C52.818,102.806 53.528,103.461 55.532,103.754 C57.509,104.042 61.079,104.042 67.56,104.042 C74.042,104.042 77.613,104.042 79.589,103.754 C81.593,103.462 82.304,102.807 82.304,101.251 L82.304,50.365 C82.304,45.083 79.499,40.28 77.245,36.421" id="Shape" fill="#74892A" sketch:type="MSShapeGroup"></path>
            <path d="M72.729,0.152 L62.393,0.152 C61.821,0.152 61.294,0.459 61.011,0.954 C59.509,3.582 59.509,6.158 59.509,7.396 C59.509,8.168 59.509,8.965 60.214,9.582 C60.4,9.744 60.594,9.858 60.797,9.937 C60.763,16.758 60.477,27.532 59.57,30.706 C59.172,32.1 58.147,33.854 56.961,35.886 C54.643,39.856 51.758,44.796 51.758,50.364 L51.758,101.248 C51.758,102.656 52.17,104.332 55.381,104.8 C57.433,105.099 61.031,105.099 67.563,105.099 C74.094,105.099 77.692,105.099 79.745,104.799 C82.956,104.331 83.368,102.655 83.368,101.246 L83.368,50.364 C83.368,44.795 80.483,39.856 78.164,35.885 C76.978,33.854 75.953,32.099 75.554,30.705 C74.648,27.532 74.362,16.757 74.327,9.936 C74.531,9.858 74.725,9.744 74.911,9.581 C75.616,8.965 75.616,8.167 75.616,7.396 C75.616,6.158 75.616,3.582 74.114,0.954 C73.831,0.458 73.304,0.152 72.732,0.152 M72.732,1.742 C74.025,4.004 74.025,6.265 74.025,7.396 C74.025,8.527 74.025,8.527 72.733,8.527 C72.733,9.658 72.733,26.619 74.026,31.142 C75.318,35.665 81.778,42.449 81.778,50.364 L81.778,101.248 C81.778,103.51 80.486,103.51 67.565,103.51 C54.644,103.51 53.352,103.51 53.352,101.249 L53.352,50.365 C53.352,42.45 59.813,35.665 61.105,31.143 C62.397,26.619 62.397,9.658 62.397,8.528 C61.105,8.528 61.105,8.528 61.105,7.397 C61.105,6.266 61.105,4.005 62.397,1.743 L72.73,1.743" id="Shape" fill="#5D772F" sketch:type="MSShapeGroup"></path>
            <path d="M63.124,103.493 C61.307,103.203 60.983,102.351 60.983,101.248 L60.983,50.364 C60.983,42.448 64.525,35.664 65.817,31.141 C67.11,26.618 67.11,9.657 67.11,8.526 C65.818,8.526 65.818,8.526 65.818,7.396 C65.818,6.265 65.818,4.004 67.111,1.742 L64.251,1.742 C62.959,4.003 62.959,6.265 62.959,7.396 C62.959,8.526 62.959,8.526 64.251,8.526 C64.251,9.657 64.251,26.618 62.959,31.141 C61.666,35.664 55.206,42.448 55.206,50.364 L55.206,101.247 C55.206,103.069 56.045,103.423 63.125,103.492" id="Shape" fill="#8A9743" sketch:type="MSShapeGroup"></path>
            <rect id="Rectangle-path" fill="#FFFBDB" sketch:type="MSShapeGroup" x="53.348" y="55.203" width="22.947" height="35.114"></rect>
            <rect id="Rectangle-path" fill="#FEFEFE" sketch:type="MSShapeGroup" x="55.205" y="55.203" width="5.778" height="35.114"></rect>
            <path d="M41.213,106.955 L15.277,106.955 C7.719,106.955 1.591,102.704 1.591,97.46 C1.591,82.28 19.331,69.973 41.213,69.973" id="Shape" fill="#F1B75A" sketch:type="MSShapeGroup"></path>
            <path d="M58.965,106.955 L23.462,106.955 C18.289,106.955 14.095,102.704 14.095,97.46 C14.095,82.28 26.236,69.973 41.214,69.973 C56.191,69.973 68.333,82.28 68.333,97.461 C68.333,102.705 64.139,106.956 58.965,106.956" id="Shape" fill="#FFF3D7" sketch:type="MSShapeGroup"></path>
            <path d="M28.354,89.97 C28.218,89.97 28.083,89.918 27.979,89.815 L26.434,88.27 C26.226,88.063 26.226,87.728 26.434,87.521 C26.641,87.314 26.976,87.314 27.184,87.521 L28.729,89.065 C28.937,89.273 28.937,89.608 28.729,89.815 C28.626,89.918 28.49,89.97 28.354,89.97 M30.657,89.97 C30.521,89.97 30.385,89.918 30.282,89.815 L28.736,88.27 C28.529,88.063 28.529,87.728 28.736,87.521 C28.944,87.314 29.279,87.314 29.487,87.521 L31.033,89.065 C31.241,89.273 31.241,89.608 31.033,89.815 C30.93,89.918 30.794,89.97 30.658,89.97 M56.39,99.604 C56.255,99.604 56.119,99.552 56.015,99.449 L54.47,97.905 C54.263,97.698 54.263,97.363 54.47,97.156 C54.678,96.948 55.013,96.948 55.221,97.156 L56.767,98.7 C56.975,98.907 56.975,99.242 56.767,99.449 C56.664,99.552 56.528,99.604 56.392,99.604 M58.695,99.604 C58.559,99.604 58.424,99.552 58.32,99.449 L56.775,97.905 C56.568,97.698 56.568,97.363 56.775,97.156 C56.983,96.948 57.318,96.948 57.525,97.156 L59.071,98.7 C59.278,98.907 59.278,99.242 59.071,99.449 C58.967,99.552 58.831,99.604 58.696,99.604 M48.04,78.358 C47.904,78.358 47.768,78.306 47.665,78.203 L46.119,76.659 C45.911,76.452 45.911,76.117 46.119,75.91 C46.326,75.703 46.662,75.703 46.869,75.91 L48.415,77.455 C48.623,77.663 48.623,77.998 48.415,78.205 C48.312,78.309 48.176,78.361 48.04,78.361" id="Shape" fill="#F5DFB0" sketch:type="MSShapeGroup"></path>
            <path d="M9.654,90.209 C9.639,90.209 9.623,90.208 9.608,90.205 C9.478,90.182 9.384,90.067 9.389,89.935 C9.39,89.907 9.493,87.07 10.371,83.83 C11.54,79.511 13.551,76.43 16.185,74.92 C20.687,72.34 23.707,71.711 23.833,71.685 C23.957,71.658 24.076,71.722 24.127,71.834 C24.178,71.946 24.146,72.078 24.049,72.154 C15.426,78.872 12.253,82.881 9.906,90.027 C9.87,90.137 9.767,90.209 9.654,90.209" id="Shape" fill="#F8D9A1" sketch:type="MSShapeGroup"></path>
            <path d="M41.214,68.383 C30.309,68.383 20.036,71.342 12.289,76.717 C4.364,82.215 0,89.582 0,97.46 C0,100.532 1.666,103.381 4.692,105.48 C7.541,107.456 11.3,108.545 15.278,108.545 L58.965,108.545 C65.008,108.545 69.924,103.573 69.924,97.46 C69.924,81.427 57.045,68.383 41.214,68.383 M41.214,69.973 C56.191,69.973 68.333,82.279 68.333,97.46 C68.333,102.704 64.139,106.955 58.965,106.955 L15.278,106.955 C7.719,106.955 1.592,102.704 1.592,97.46 C1.592,82.279 19.331,69.973 41.214,69.973" id="Shape" fill="#D19137" sketch:type="MSShapeGroup"></path>
            <path d="M41.214,68.383 C30.309,68.383 20.036,71.342 12.289,76.717 C4.364,82.215 0,89.582 0,97.46 C0,100.532 1.666,103.381 4.692,105.48 C7.541,107.456 11.3,108.545 15.278,108.545 L58.965,108.545 C65.008,108.545 69.924,103.573 69.924,97.46 C69.924,81.427 57.045,68.383 41.214,68.383 M41.214,69.973 C56.191,69.973 68.333,82.279 68.333,97.46 C68.333,102.704 64.139,106.955 58.965,106.955 L15.278,106.955 C7.719,106.955 1.592,102.704 1.592,97.46 C1.592,82.279 19.331,69.973 41.214,69.973" id="Shape" fill="#D19137" sketch:type="MSShapeGroup"></path>
            <path d="M114.684,56.774 L93.709,56.774 C93.039,56.774 92.442,57.192 92.213,57.82 L74.51,106.411 C74.332,106.898 74.404,107.442 74.702,107.867 C75,108.292 75.486,108.545 76.006,108.545 L96.981,108.545 L132.905,108.542 C133.784,108.542 134.496,107.83 134.496,106.952 C134.496,88.693 127.886,71.066 115.884,57.319 C115.581,56.973 115.144,56.774 114.684,56.774" id="Shape" fill="#D4A464" sketch:type="MSShapeGroup"></path>
            <path d="M96.982,106.955 L76.006,106.955 L93.708,58.364 L114.684,58.364 L96.982,106.955 L96.982,106.955 Z" id="Shape" fill="#FFEFAF" sketch:type="MSShapeGroup"></path>
            <path d="M132.905,106.952 C132.905,88.353 126.03,71.36 114.684,58.364 L96.982,106.955 L132.905,106.952 L132.905,106.952 L132.905,106.952 Z" id="Shape" fill="#E8BA6F" sketch:type="MSShapeGroup"></path>
            <path d="M100.514,83.817 C100.312,85.12 99.092,86.175 97.789,86.175 C96.485,86.175 95.592,85.119 95.793,83.817 C95.994,82.515 97.214,81.459 98.517,81.459 C99.82,81.459 100.714,82.515 100.513,83.817 M84.875,101.918 C84.769,102.599 84.131,103.152 83.45,103.152 C82.768,103.152 82.301,102.599 82.406,101.918 C82.511,101.237 83.149,100.685 83.831,100.685 C84.513,100.685 84.98,101.237 84.874,101.918 M102.426,70.85 C102.32,71.531 101.683,72.084 101.001,72.084 C100.319,72.084 99.852,71.531 99.957,70.85 C100.062,70.169 100.7,69.617 101.382,69.617 C102.064,69.617 102.531,70.169 102.425,70.85 M94.56,63.91 C94.51,64.235 94.205,64.499 93.879,64.499 C93.554,64.499 93.33,64.235 93.381,63.909 C93.43,63.583 93.736,63.32 94.062,63.32 C94.388,63.32 94.611,63.584 94.56,63.909 M104.17,69.026 C104.12,69.351 103.815,69.615 103.489,69.615 C103.163,69.615 102.94,69.351 102.99,69.025 C103.04,68.699 103.345,68.435 103.672,68.435 C103.997,68.435 104.221,68.699 104.17,69.024 M96.268,62.941 C96.218,63.266 95.913,63.53 95.587,63.53 C95.261,63.53 95.038,63.266 95.088,62.94 C95.138,62.615 95.443,62.351 95.769,62.351 C96.095,62.351 96.319,62.615 96.268,62.94 M95.671,86.761 C95.621,87.087 95.316,87.351 94.99,87.351 C94.664,87.351 94.441,87.087 94.491,86.761 C94.541,86.435 94.846,86.171 95.172,86.171 C95.498,86.171 95.721,86.435 95.671,86.76" id="Shape" fill="#FFF9C7" sketch:type="MSShapeGroup"></path>
        </g>
    </g>
</svg>