<?xml version="1.0" encoding="UTF-8" standalone="no"?>
<svg width="314px" height="150px" viewBox="0 0 314 150" version="1.1" xmlns="http://www.w3.org/2000/svg" xmlns:xlink="http://www.w3.org/1999/xlink" xmlns:sketch="http://www.bohemiancoding.com/sketch/ns">
    <!-- Generator: Sketch 3.4.3 (16044) - http://www.bohemiancoding.com/sketch -->
    <title>logo</title>
    <desc>Created with Sketch.</desc>
    <defs>
        <path id="path-1" d="M0,0.152120141 L314.00068,0.152120141 L314.00068,150 L0,150"></path>
        <path id="path-3" d="M0,0.152120141 L314.00068,0.152120141 L314.00068,150 L0,150 L0,0.152120141 Z"></path>
        <path id="path-5" d="M23.7314577,0.164395279 L8.15719014,3.65593887 C7.94026056,3.70419684 7.74353521,3.81503108 7.58934507,3.97465359 L7.58934507,3.97465359 L0.179179577,11.6375948 L0.179179577,36.4119633 L0.179179577,78.1222273 C0.179179577,107.318298 23.9085106,130.985915 53.1807113,130.985915 L53.1807113,130.985915 C82.452912,130.985915 106.182243,107.318298 106.182243,78.1222273 L106.182243,78.1222273 L106.182243,36.4119633 L106.181711,36.4119633 L106.181711,25.0183099 L105.420331,24.5930034 C105.097595,24.4126989 104.706803,24.4005018 104.373965,24.5606546 L104.373965,24.5606546 L103.606736,24.9286879 C103.093655,25.1758111 102.476363,25.0039916 102.164792,24.5277756 L102.164792,24.5277756 L95.5601373,14.4323145 C95.4947394,14.3326168 95.4139225,14.2435251 95.3198134,14.1687518 L95.3198134,14.1687518 L94.1272324,13.2136682 C93.7438838,12.9066203 93.2058134,12.8811655 92.7948169,13.1505617 L92.7948169,13.1505617 L91.7011303,13.8675372 C91.3183134,14.1178423 90.8211831,14.1146604 90.442088,13.858522 L90.442088,13.858522 L84.7577887,10.0185665 C84.3340317,9.73220049 83.7704401,9.76454924 83.3823063,10.0975823 L83.3823063,10.0975823 L81.7431056,11.5039573 C81.3012711,11.8831271 80.6435704,11.8666876 80.2214085,11.4663055 L80.2214085,11.4663055 L73.4572465,5.05276843 C72.9968028,4.61632548 72.2667923,4.64231054 71.83825,5.11004163 L71.83825,5.11004163 L70.674912,6.37959742 C70.3856725,6.6956606 69.942243,6.82187375 69.528588,6.70520614 L69.528588,6.70520614 L59.9709261,4.0043508 C59.4179683,3.84791013 58.8352359,4.12897303 58.6145845,4.65875007 L58.6145845,4.65875007 L58.2626056,5.50405999 C57.9691127,6.20936876 57.0700246,6.42997662 56.480912,5.93254833 L56.480912,5.93254833 C56.0427993,5.5623938 55.3749965,5.64830359 54.9719754,6.05610994 L54.9719754,6.05610994 L52.1609296,8.89908764 C51.7924683,9.2713634 51.2171796,9.3434852 50.7679014,9.07355876 L50.7679014,9.07355876 L43.2386373,4.5526886 C42.930257,4.36708103 42.5516937,4.33897474 42.2188556,4.47685465 L42.2188556,4.47685465 L37.2502113,6.53391686 C36.7201162,6.7534641 36.1097359,6.54346239 35.8274085,6.04550379 L35.8274085,6.04550379 L33.1349296,1.29076809 C32.7733803,0.652278041 31.9083204,0.519701203 31.3718451,1.02137196 L31.3718451,1.02137196 L29.2259437,3.02540343 C28.7984648,3.42472487 28.1359789,3.43374009 27.6983979,3.04555511 L27.6983979,3.04555511 L24.7326303,0.422124651 C24.5231444,0.236517078 24.2546408,0.136819296 23.979757,0.136819296 L23.979757,0.136819296 C23.8968134,0.136819296 23.8138697,0.145834521 23.7314577,0.164395279 L23.7314577,0.164395279 Z"></path>
        <path id="path-7" d="M23.7314577,0.164395279 L8.15719014,3.65593887 C7.94026056,3.70419684 7.74353521,3.81503108 7.58934507,3.97465359 L7.58934507,3.97465359 L0.179179577,11.6375948 L0.179179577,36.4119633 L0.179179577,78.1222273 C0.179179577,107.318298 23.9085106,130.985915 53.1807113,130.985915 L53.1807113,130.985915 C82.452912,130.985915 106.182243,107.318298 106.182243,78.1222273 L106.182243,78.1222273 L106.182243,36.4119633 L106.181711,36.4119633 L106.181711,25.0183099 L105.420331,24.5930034 C105.097595,24.4126989 104.706803,24.4005018 104.373965,24.5606546 L104.373965,24.5606546 L103.606736,24.9286879 C103.093655,25.1758111 102.476363,25.0039916 102.164792,24.5277756 L102.164792,24.5277756 L95.5601373,14.4323145 C95.4947394,14.3326168 95.4139225,14.2435251 95.3198134,14.1687518 L95.3198134,14.1687518 L94.1272324,13.2136682 C93.7438838,12.9066203 93.2058134,12.8811655 92.7948169,13.1505617 L92.7948169,13.1505617 L91.7011303,13.8675372 C91.3183134,14.1178423 90.8211831,14.1146604 90.442088,13.858522 L90.442088,13.858522 L84.7577887,10.0185665 C84.3340317,9.73220049 83.7704401,9.76454924 83.3823063,10.0975823 L83.3823063,10.0975823 L81.7431056,11.5039573 C81.3012711,11.8831271 80.6435704,11.8666876 80.2214085,11.4663055 L80.2214085,11.4663055 L73.4572465,5.05276843 C72.9968028,4.61632548 72.2667923,4.64231054 71.83825,5.11004163 L71.83825,5.11004163 L70.674912,6.37959742 C70.3856725,6.6956606 69.942243,6.82187375 69.528588,6.70520614 L69.528588,6.70520614 L59.9709261,4.0043508 C59.4179683,3.84791013 58.8352359,4.12897303 58.6145845,4.65875007 L58.6145845,4.65875007 L58.2626056,5.50405999 C57.9691127,6.20936876 57.0700246,6.42997662 56.480912,5.93254833 L56.480912,5.93254833 C56.0427993,5.5623938 55.3749965,5.64830359 54.9719754,6.05610994 L54.9719754,6.05610994 L52.1609296,8.89908764 C51.7924683,9.2713634 51.2171796,9.3434852 50.7679014,9.07355876 L50.7679014,9.07355876 L43.2386373,4.5526886 C42.930257,4.36708103 42.5516937,4.33897474 42.2188556,4.47685465 L42.2188556,4.47685465 L37.2502113,6.53391686 C36.7201162,6.7534641 36.1097359,6.54346239 35.8274085,6.04550379 L35.8274085,6.04550379 L33.1349296,1.29076809 C32.7733803,0.652278041 31.9083204,0.519701203 31.3718451,1.02137196 L31.3718451,1.02137196 L29.2259437,3.02540343 C28.7984648,3.42472487 28.1359789,3.43374009 27.6983979,3.04555511 L27.6983979,3.04555511 L24.7326303,0.422124651 C24.5231444,0.236517078 24.2546408,0.136819296 23.979757,0.136819296 L23.979757,0.136819296 C23.8968134,0.136819296 23.8138697,0.145834521 23.7314577,0.164395279 L23.7314577,0.164395279 Z"></path>
        <path id="path-9" d="M23.7314577,0.164395279 L8.15719014,3.65593887 C7.94026056,3.70419684 7.74353521,3.81503108 7.58934507,3.97465359 L7.58934507,3.97465359 L0.179179577,11.6375948 L0.179179577,36.4119633 L0.179179577,78.1222273 C0.179179577,107.318298 23.9085106,130.985915 53.1807113,130.985915 L53.1807113,130.985915 C82.452912,130.985915 106.182243,107.318298 106.182243,78.1222273 L106.182243,78.1222273 L106.182243,36.4119633 L106.181711,36.4119633 L106.181711,25.0183099 L105.420331,24.5930034 C105.097595,24.4126989 104.706803,24.4005018 104.373965,24.5606546 L104.373965,24.5606546 L103.606736,24.9286879 C103.093655,25.1758111 102.476363,25.0039916 102.164792,24.5277756 L102.164792,24.5277756 L95.5601373,14.4323145 C95.4947394,14.3326168 95.4139225,14.2435251 95.3198134,14.1687518 L95.3198134,14.1687518 L94.1272324,13.2136682 C93.7438838,12.9066203 93.2058134,12.8811655 92.7948169,13.1505617 L92.7948169,13.1505617 L91.7011303,13.8675372 C91.3183134,14.1178423 90.8211831,14.1146604 90.442088,13.858522 L90.442088,13.858522 L84.7577887,10.0185665 C84.3340317,9.73220049 83.7704401,9.76454924 83.3823063,10.0975823 L83.3823063,10.0975823 L81.7431056,11.5039573 C81.3012711,11.8831271 80.6435704,11.8666876 80.2214085,11.4663055 L80.2214085,11.4663055 L73.4572465,5.05276843 C72.9968028,4.61632548 72.2667923,4.64231054 71.83825,5.11004163 L71.83825,5.11004163 L70.674912,6.37959742 C70.3856725,6.6956606 69.942243,6.82187375 69.528588,6.70520614 L69.528588,6.70520614 L59.9709261,4.0043508 C59.4179683,3.84791013 58.8352359,4.12897303 58.6145845,4.65875007 L58.6145845,4.65875007 L58.2626056,5.50405999 C57.9691127,6.20936876 57.0700246,6.42997662 56.480912,5.93254833 L56.480912,5.93254833 C56.0427993,5.5623938 55.3749965,5.64830359 54.9719754,6.05610994 L54.9719754,6.05610994 L52.1609296,8.89908764 C51.7924683,9.2713634 51.2171796,9.3434852 50.7679014,9.07355876 L50.7679014,9.07355876 L43.2386373,4.5526886 C42.930257,4.36708103 42.5516937,4.33897474 42.2188556,4.47685465 L42.2188556,4.47685465 L37.2502113,6.53391686 C36.7201162,6.7534641 36.1097359,6.54346239 35.8274085,6.04550379 L35.8274085,6.04550379 L33.1349296,1.29076809 C32.7733803,0.652278041 31.9083204,0.519701203 31.3718451,1.02137196 L31.3718451,1.02137196 L29.2259437,3.02540343 C28.7984648,3.42472487 28.1359789,3.43374009 27.6983979,3.04555511 L27.6983979,3.04555511 L24.7326303,0.422124651 C24.5231444,0.236517078 24.2546408,0.136819296 23.979757,0.136819296 L23.979757,0.136819296 C23.8968134,0.136819296 23.8138697,0.145834521 23.7314577,0.164395279 L23.7314577,0.164395279 Z"></path>
        <path id="path-11" d="M23.7314577,0.164395279 L8.15719014,3.65593887 C7.94026056,3.70419684 7.74353521,3.81503108 7.58934507,3.97465359 L7.58934507,3.97465359 L0.179179577,11.6375948 L0.179179577,36.4119633 L0.179179577,78.1222273 C0.179179577,107.318298 23.9085106,130.985915 53.1807113,130.985915 L53.1807113,130.985915 C82.452912,130.985915 106.182243,107.318298 106.182243,78.1222273 L106.182243,78.1222273 L106.182243,36.4119633 L106.181711,36.4119633 L106.181711,25.0183099 L105.420331,24.5930034 C105.097595,24.4126989 104.706803,24.4005018 104.373965,24.5606546 L104.373965,24.5606546 L103.606736,24.9286879 C103.093655,25.1758111 102.476363,25.0039916 102.164792,24.5277756 L102.164792,24.5277756 L95.5601373,14.4323145 C95.4947394,14.3326168 95.4139225,14.2435251 95.3198134,14.1687518 L95.3198134,14.1687518 L94.1272324,13.2136682 C93.7438838,12.9066203 93.2058134,12.8811655 92.7948169,13.1505617 L92.7948169,13.1505617 L91.7011303,13.8675372 C91.3183134,14.1178423 90.8211831,14.1146604 90.442088,13.858522 L90.442088,13.858522 L84.7577887,10.0185665 C84.3340317,9.73220049 83.7704401,9.76454924 83.3823063,10.0975823 L83.3823063,10.0975823 L81.7431056,11.5039573 C81.3012711,11.8831271 80.6435704,11.8666876 80.2214085,11.4663055 L80.2214085,11.4663055 L73.4572465,5.05276843 C72.9968028,4.61632548 72.2667923,4.64231054 71.83825,5.11004163 L71.83825,5.11004163 L70.674912,6.37959742 C70.3856725,6.6956606 69.942243,6.82187375 69.528588,6.70520614 L69.528588,6.70520614 L59.9709261,4.0043508 C59.4179683,3.84791013 58.8352359,4.12897303 58.6145845,4.65875007 L58.6145845,4.65875007 L58.2626056,5.50405999 C57.9691127,6.20936876 57.0700246,6.42997662 56.480912,5.93254833 L56.480912,5.93254833 C56.0427993,5.5623938 55.3749965,5.64830359 54.9719754,6.05610994 L54.9719754,6.05610994 L52.1609296,8.89908764 C51.7924683,9.2713634 51.2171796,9.3434852 50.7679014,9.07355876 L50.7679014,9.07355876 L43.2386373,4.5526886 C42.930257,4.36708103 42.5516937,4.33897474 42.2188556,4.47685465 L42.2188556,4.47685465 L37.2502113,6.53391686 C36.7201162,6.7534641 36.1097359,6.54346239 35.8274085,6.04550379 L35.8274085,6.04550379 L33.1349296,1.29076809 C32.7733803,0.652278041 31.9083204,0.519701203 31.3718451,1.02137196 L31.3718451,1.02137196 L29.2259437,3.02540343 C28.7984648,3.42472487 28.1359789,3.43374009 27.6983979,3.04555511 L27.6983979,3.04555511 L24.7326303,0.422124651 C24.5231444,0.236517078 24.2546408,0.136819296 23.979757,0.136819296 L23.979757,0.136819296 C23.8968134,0.136819296 23.8138697,0.145834521 23.7314577,0.164395279 L23.7314577,0.164395279 Z"></path>
        <path id="path-13" d="M0,0.152120141 L314.00068,0.152120141 L314.00068,150 L0,150 L0,0.152120141 Z"></path>
    </defs>
    <g id="Page-1" stroke="none" stroke-width="1" fill="none" fill-rule="evenodd" sketch:type="MSPage">
        <g id="Desktop" sketch:type="MSArtboardGroup" transform="translate(-160.000000, -97.000000)">
            <g id="logo" sketch:type="MSLayerGroup" transform="translate(160.000000, 97.000000)">
                <g id="Group-54">
                    <path d="M157.208315,7.94358657 L154.073306,7.94358657 L154.073306,28.6483569 L157.208315,28.6483569 C158.950105,28.6483569 160.343324,27.2559541 160.343324,25.5163781 L160.343324,11.0755654 C160.343324,9.33545936 158.950105,7.94358657 157.208315,7.94358657 M164.522982,11.0755654 L164.522982,25.5163781 C164.522982,29.5616078 161.257459,32.8239753 157.208315,32.8239753 L151.983477,32.8239753 C150.808313,32.8239753 149.893648,31.9101943 149.893648,30.7361661 L149.893648,5.85577739 C149.893648,4.68121908 150.808313,3.76743816 151.983477,3.76743816 L157.208315,3.76743816 C161.257459,3.76743816 164.522982,7.03033569 164.522982,11.0755654 Z M174.684677,28.8219965 C176.382431,28.8219965 177.819686,27.4301237 177.819686,25.6900177 L177.819686,5.68118375 C177.819686,4.50715548 178.733821,3.59390459 179.909516,3.59390459 C181.08468,3.59390459 181.998814,4.50715548 181.998814,5.68118375 L181.998814,25.6900177 C181.998814,29.7357774 178.690316,32.9981449 174.684677,32.9981449 C170.635003,32.9981449 167.37001,29.7357774 167.37001,25.6900177 L167.37001,5.68118375 C167.37001,4.50715548 168.284144,3.59390459 169.459839,3.59390459 C170.635003,3.59390459 171.549668,4.50715548 171.549668,5.68118375 L171.549668,25.6900177 C171.549668,27.4301237 172.942888,28.8219965 174.684677,28.8219965 Z M194.536993,3.6810424 C195.625678,3.37627208 196.801373,4.02874558 197.105908,5.11584806 C197.672003,7.16072438 198.238097,9.24853357 198.804192,11.3363428 C199.805867,14.9469435 201.024536,19.3833392 202.069716,23.0808657 C203.070861,19.3833392 204.29006,14.9469435 205.291205,11.3363428 C205.857299,9.24853357 206.423394,7.16072438 206.989489,5.11584806 C207.294024,4.02874558 208.469719,3.37627208 209.557873,3.6810424 C210.734098,3.98528269 211.343167,5.07291519 211.038102,6.2474735 L204.072535,31.4755654 C203.76747,32.3888163 202.983851,32.9978269 202.069716,32.9978269 C201.068041,32.9978269 200.327927,32.3888163 200.023392,31.4755654 L193.056764,6.2474735 C192.751699,5.07291519 193.361829,3.98528269 194.536993,3.6810424 Z M213.088459,30.9099647 L213.088459,5.68134276 C213.088459,4.50731449 214.003124,3.5940636 215.178288,3.5940636 C216.354513,3.5940636 217.268647,4.50731449 217.268647,5.68134276 L217.268647,30.9099647 C217.268647,32.084523 216.354513,32.9977739 215.178288,32.9977739 C214.003124,32.9977739 213.088459,32.084523 213.088459,30.9099647 Z M233.042428,31.8233216 C232.171798,29.9528269 231.257133,28.0828622 230.299494,26.1254417 C228.68875,22.8190813 226.59839,18.60053 224.813626,14.8160777 L224.813626,30.9100707 C224.813626,32.084629 223.898961,32.9978799 222.723266,32.9978799 C221.548102,32.9978799 220.633437,32.084629 220.633437,30.9100707 L220.633437,5.68144876 C220.633437,4.68127208 221.243037,3.854947 222.244712,3.63710247 C223.245856,3.41978799 224.117016,3.89787986 224.595571,4.76819788 C225.466731,6.63869258 226.380865,8.50918728 227.338504,10.4660777 C228.949779,13.7719081 230.952598,17.9915194 232.824903,21.7754417 L232.824903,5.68144876 C232.824903,4.50742049 233.739037,3.59416961 234.914202,3.59416961 C236.089896,3.59416961 237.004031,4.50742049 237.004031,5.68144876 L237.004031,30.9100707 C237.004031,31.9102473 236.307952,32.7365724 235.393287,32.954417 C234.392142,33.1717314 233.433972,32.6931095 233.042428,31.8233216 Z M157.208315,43.6210601 L154.073306,43.6210601 L154.073306,64.3258304 L157.208315,64.3258304 C158.950105,64.3258304 160.343324,62.9334276 160.343324,61.1938516 L160.343324,46.7530389 C160.343324,45.0129329 158.950105,43.6210601 157.208315,43.6210601 Z M164.522982,46.7530389 L164.522982,61.1938516 C164.522982,65.2390813 161.257459,68.5014488 157.208315,68.5014488 L151.983477,68.5014488 C150.808313,68.5014488 149.893648,67.5876678 149.893648,66.4136396 L149.893648,41.5332509 C149.893648,40.3586926 150.808313,39.4449117 151.983477,39.4449117 L157.208315,39.4449117 C161.257459,39.4449117 164.522982,42.7078092 164.522982,46.7530389 Z M174.684677,64.499417 C176.382431,64.499417 177.819686,63.1075442 177.819686,61.3674382 L177.819686,41.3586042 C177.819686,40.184576 178.733821,39.2713251 179.909516,39.2713251 C181.08468,39.2713251 181.998814,40.184576 181.998814,41.3586042 L181.998814,61.3674382 C181.998814,65.4131979 178.690316,68.6755654 174.684677,68.6755654 C170.635003,68.6755654 167.37001,65.4131979 167.37001,61.3674382 L167.37001,41.3586042 C167.37001,40.184576 168.284144,39.2713251 169.459839,39.2713251 C170.635003,39.2713251 171.549668,40.184576 171.549668,41.3586042 L171.549668,61.3674382 C171.549668,63.1075442 172.942888,64.499417 174.684677,64.499417 Z M194.536993,66.4136926 L194.536993,41.5333039 C194.536993,40.3587456 195.451658,39.4449647 196.626823,39.4449647 L205.33471,39.4449647 C206.510404,39.4449647 207.424539,40.3587456 207.424539,41.5333039 C207.424539,42.7078622 206.510404,43.6211131 205.33471,43.6211131 L198.717182,43.6211131 L198.717182,51.450265 L204.46408,51.450265 C205.639775,51.450265 206.553909,52.3635159 206.553909,53.5386042 C206.553909,54.7126325 205.639775,55.6264134 204.46408,55.6264134 L198.717182,55.6264134 L198.717182,66.4136926 C198.717182,67.5877208 197.803048,68.5009717 196.626823,68.5009717 C195.451658,68.5009717 194.536993,67.5877208 194.536993,66.4136926 Z M217.155428,52.320424 C218.897218,52.320424 220.290438,50.9280212 220.290438,49.1884452 L220.290438,46.7529329 C220.290438,45.0128269 218.897218,43.6209541 217.155428,43.6209541 L214.020419,43.6209541 L214.020419,52.320424 L217.155428,52.320424 Z M220.551467,55.6697173 L224.33905,65.8479859 C224.818666,66.9350883 224.208536,68.1531095 223.119851,68.5448057 C222.031697,68.9359717 220.900037,68.4138869 220.420952,67.3267845 L216.371809,56.4960424 L214.020419,56.4960424 L214.020419,66.5873852 C214.020419,67.7619435 213.106285,68.6751943 211.93059,68.6751943 C210.755426,68.6751943 209.840761,67.7619435 209.840761,66.5873852 L209.840761,41.5331449 C209.840761,40.3591166 210.755426,39.4453357 211.93059,39.4453357 L217.155428,39.4453357 C221.204572,39.4453357 224.470096,42.7077032 224.470096,46.7529329 L224.470096,49.1884452 C224.470096,52.0156537 222.946362,54.4516961 220.551467,55.6697173 Z M230.888667,46.5786042 L230.888667,61.3676502 C230.888667,63.1077562 232.282417,64.499629 234.023676,64.499629 C235.764936,64.499629 237.158155,63.1077562 237.158155,61.3676502 L237.158155,46.5786042 C237.158155,44.8390283 235.764936,43.4466254 234.023676,43.4466254 C232.282417,43.4466254 230.888667,44.8390283 230.888667,46.5786042 Z M226.709009,61.3676502 L226.709009,46.5786042 C226.709009,42.5333746 229.974533,39.2715371 234.023676,39.2715371 C238.07282,39.2715371 241.338344,42.5333746 241.338344,46.5786042 L241.338344,61.3676502 C241.338344,65.4134099 238.07282,68.6752473 234.023676,68.6752473 C229.974533,68.6752473 226.709009,65.4134099 226.709009,61.3676502 Z M244.380295,66.5874382 L244.380295,41.3588163 C244.380295,40.3591696 244.989895,39.5323145 245.99157,39.31447 C246.992714,39.0971555 247.950353,39.5752473 248.342428,40.4895583 C248.908523,41.7505124 249.518123,43.0119965 250.127723,44.2734806 C251.128867,46.4922085 252.435607,49.1015724 253.436752,51.2328445 C254.438427,49.1015724 255.700601,46.4922085 256.702276,44.2734806 C257.26784,43.0119965 257.87744,41.7505124 258.48704,40.4895583 C258.966125,39.5752473 259.836754,39.0971555 260.838429,39.31447 C261.839573,39.5323145 262.492678,40.3591696 262.492678,41.3588163 L262.492678,66.5874382 C262.492678,67.7619965 261.578544,68.6752473 260.402849,68.6752473 C259.227685,68.6752473 258.31302,67.7619965 258.31302,66.5874382 L258.31302,50.7107597 C257.572905,52.2770141 256.83279,53.8427385 256.266696,55.0172968 C255.96163,55.7132332 255.613591,56.3657067 255.308526,57.0181802 C254.960486,57.7575795 254.263876,58.2362014 253.436752,58.2362014 C252.522087,58.2362014 251.913017,57.8445053 251.520942,57.0181802 C251.216408,56.3657067 250.867838,55.7132332 250.563303,55.0172968 C249.997208,53.8427385 249.256563,52.2770141 248.560484,50.7107597 L248.560484,66.5874382 C248.560484,67.7619965 247.645819,68.6752473 246.470124,68.6752473 C245.29496,68.6752473 244.380295,67.7619965 244.380295,66.5874382 Z M273.402234,49.2320141 C272.575109,52.0597527 271.70448,55.4090459 270.877355,58.410106 L275.927643,58.410106 C275.100518,55.4090459 274.229889,52.0597527 273.402234,49.2320141 Z M280.934956,68.5883746 C279.758731,68.8931449 278.670577,68.2406714 278.366042,67.1530389 C278.235527,66.8048057 278.147987,66.3701767 278.017472,65.8915548 C277.799947,65.0646996 277.451908,63.9341343 277.103338,62.5857244 L269.70166,62.5857244 C269.310116,63.9341343 269.005051,65.0646996 268.787526,65.8915548 C268.657011,66.3701767 268.569471,66.8048057 268.438956,67.1530389 C268.133891,68.2406714 267.045736,68.8931449 265.870042,68.5883746 C264.781887,68.2836042 264.128252,67.1965018 264.433317,66.0219435 L271.399414,40.7933216 C271.616939,39.8800707 272.400559,39.2715901 273.402234,39.2715901 C274.403909,39.2715901 275.187528,39.8800707 275.405053,40.7933216 L282.371681,66.0219435 C282.676746,67.1965018 282.023111,68.2836042 280.934956,68.5883746 Z M298.227219,54.4083922 L298.227219,61.3677562 C298.227219,65.4129859 294.961695,68.6753534 290.912551,68.6753534 C286.906913,68.6753534 283.598414,65.4129859 283.598414,61.3677562 L283.598414,46.5787102 C283.598414,43.2728799 285.774723,40.3587456 289.040247,39.5324205 C292.218761,38.7060954 295.614799,40.0105124 297.269049,42.9251767 C297.835143,43.9258834 297.487104,45.1433746 296.485429,45.7958481 C295.484285,46.3608657 294.22158,46.0131625 293.655485,45.0124558 C292.91537,43.7949647 291.478646,43.1859541 290.128932,43.5771201 C288.735712,43.9258834 287.777542,45.1868375 287.777542,46.5787102 L287.777542,61.3677562 C287.777542,63.1078622 289.214267,64.4992049 290.912551,64.4992049 C292.654341,64.4992049 294.04703,63.1078622 294.04703,61.3677562 L294.04703,56.4956714 L291.783181,56.4956714 C290.608017,56.4956714 289.693351,55.5824205 289.693351,54.4083922 C289.693351,53.2338339 290.608017,52.320583 291.783181,52.320583 L296.137389,52.320583 C297.313084,52.320583 298.227219,53.2338339 298.227219,54.4083922 Z M303.202805,39.4450707 L311.910692,39.4450707 C313.086387,39.4450707 314.000521,40.3588516 314.000521,41.5328799 C314.000521,42.7079682 313.086387,43.6212191 311.910692,43.6212191 L305.292634,43.6212191 L305.292634,51.450371 L311.039532,51.450371 C312.215227,51.450371 313.129892,52.3636219 313.129892,53.5381802 C313.129892,54.7127385 312.215227,55.6265194 311.039532,55.6265194 L305.292634,55.6265194 L305.292634,64.3254594 L311.910692,64.3254594 C313.086387,64.3254594 314.000521,65.2392403 314.000521,66.4137986 C314.000521,67.5878269 313.086387,68.5010777 311.910692,68.5010777 L303.202805,68.5010777 C302.027641,68.5010777 301.112976,67.5878269 301.112976,66.4137986 L301.112976,41.5328799 C301.112976,40.3588516 302.027641,39.4450707 303.202805,39.4450707 Z M151.983583,75.1225442 L160.69147,75.1225442 C161.867165,75.1225442 162.781299,76.0363251 162.781299,77.2103534 C162.781299,78.3854417 161.867165,79.2986926 160.69147,79.2986926 L154.073412,79.2986926 L154.073412,87.1278445 L159.82031,87.1278445 C160.996004,87.1278445 161.910669,88.0410954 161.910669,89.2156537 C161.910669,90.390212 160.996004,91.3039929 159.82031,91.3039929 L154.073412,91.3039929 L154.073412,100.002933 L160.69147,100.002933 C161.867165,100.002933 162.781299,100.916714 162.781299,102.091272 C162.781299,103.2653 161.867165,104.178551 160.69147,104.178551 L151.983583,104.178551 C150.808419,104.178551 149.893754,103.2653 149.893754,102.091272 L149.893754,77.2103534 C149.893754,76.0363251 150.808419,75.1225442 151.983583,75.1225442 Z M180.070378,77.2105124 C180.070378,78.3850707 179.156243,79.2983216 177.980549,79.2983216 L174.40996,79.2983216 L174.40996,102.264753 C174.40996,103.439311 173.495825,104.353092 172.32013,104.353092 C171.144966,104.353092 170.230301,103.439311 170.230301,102.264753 L170.230301,79.2983216 L166.659712,79.2983216 C165.484548,79.2983216 164.570413,78.3850707 164.570413,77.2105124 C164.570413,76.0364841 165.484548,75.1227032 166.659712,75.1227032 L177.980549,75.1227032 C179.156243,75.1227032 180.070378,76.0364841 180.070378,77.2105124 Z M198.529687,79.2984806 L195.394678,79.2984806 L195.394678,100.003251 L198.529687,100.003251 C200.271476,100.003251 201.664696,98.6108481 201.664696,96.8712721 L201.664696,82.4304594 C201.664696,80.6903534 200.271476,79.2984806 198.529687,79.2984806 Z M205.844354,82.4304594 L205.844354,96.8712721 C205.844354,100.916502 202.57883,104.178869 198.529687,104.178869 L193.304848,104.178869 C192.129684,104.178869 191.215019,103.265088 191.215019,102.09106 L191.215019,77.2106714 C191.215019,76.0361131 192.129684,75.1223322 193.304848,75.1223322 L198.529687,75.1223322 C202.57883,75.1223322 205.844354,78.3852297 205.844354,82.4304594 Z M216.006049,100.17689 C217.703803,100.17689 219.141058,98.7850177 219.141058,97.0449117 L219.141058,77.0360777 C219.141058,75.8620495 220.055192,74.9487986 221.230887,74.9487986 C222.406051,74.9487986 223.320186,75.8620495 223.320186,77.0360777 L223.320186,97.0449117 C223.320186,101.090671 220.011688,104.353039 216.006049,104.353039 C211.956375,104.353039 208.691382,101.090671 208.691382,97.0449117 L208.691382,77.0360777 C208.691382,75.8620495 209.605516,74.9487986 210.781211,74.9487986 C211.956375,74.9487986 212.87104,75.8620495 212.87104,77.0360777 L212.87104,97.0449117 C212.87104,98.7850177 214.264259,100.17689 216.006049,100.17689 Z M243.173616,79.2984806 L240.038607,79.2984806 L240.038607,87.9979505 L243.173616,87.9979505 C244.915406,87.9979505 246.308625,86.6055477 246.308625,84.8659717 L246.308625,82.4304594 C246.308625,80.6903534 244.915406,79.2984806 243.173616,79.2984806 Z M237.948778,75.1223322 L243.173616,75.1223322 C247.22276,75.1223322 250.488283,78.3852297 250.488283,82.4304594 L250.488283,84.8659717 C250.488283,88.9112014 247.22276,92.1735689 243.173616,92.1735689 L240.038607,92.1735689 L240.038607,102.264912 C240.038607,103.43947 239.124473,104.352721 237.948778,104.352721 C236.773614,104.352721 235.858949,103.43947 235.858949,102.264912 L235.858949,77.2106714 C235.858949,76.0361131 236.773614,75.1223322 237.948778,75.1223322 Z M257.752814,84.9094346 C256.925689,87.7371731 256.05506,91.0864664 255.227935,94.0875265 L260.278223,94.0875265 C259.451099,91.0864664 258.580469,87.7371731 257.752814,84.9094346 Z M265.285537,104.265795 C264.109311,104.570565 263.021688,103.918092 262.716623,102.830459 C262.586108,102.482226 262.498567,102.047597 262.368052,101.568975 C262.150528,100.74212 261.802488,99.6115548 261.453918,98.2631449 L254.052241,98.2631449 C253.660696,99.6115548 253.355631,100.74212 253.138106,101.568975 C253.007591,102.047597 252.920051,102.482226 252.789536,102.830459 C252.484471,103.918092 251.396317,104.570565 250.220622,104.265795 C249.132468,103.961025 248.478832,102.873922 248.783898,101.699364 L255.749995,76.470742 C255.96752,75.5574912 256.751139,74.9490106 257.752814,74.9490106 C258.754489,74.9490106 259.538109,75.5574912 259.755633,76.470742 L266.722261,101.699364 C267.026796,102.873922 266.373691,103.961025 265.285537,104.265795 Z M268.636267,102.264859 L268.636267,77.0362367 C268.636267,75.8622085 269.550932,74.9489576 270.726096,74.9489576 C271.902321,74.9489576 272.816456,75.8622085 272.816456,77.0362367 L272.816456,102.264859 C272.816456,103.439417 271.902321,104.352668 270.726096,104.352668 C269.550932,104.352668 268.636267,103.439417 268.636267,102.264859 Z M288.590236,103.178216 C287.719606,101.307721 286.804941,99.4377562 285.847302,97.4803357 C284.236558,94.1739753 282.146198,89.955424 280.361434,86.1709717 L280.361434,102.264965 C280.361434,103.439523 279.446769,104.352774 278.271074,104.352774 C277.09591,104.352774 276.181245,103.439523 276.181245,102.264965 L276.181245,77.0363428 C276.181245,76.0361661 276.790845,75.209841 277.79252,74.9919965 C278.793664,74.774682 279.664824,75.2527739 280.143379,76.1230919 C281.014539,77.9935866 281.928673,79.8640813 282.886313,81.8209717 C284.497587,85.1268021 286.500407,89.3464134 288.372711,93.1303357 L288.372711,77.0363428 C288.372711,75.8623145 289.286845,74.9490636 290.46201,74.9490636 C291.637704,74.9490636 292.551839,75.8623145 292.551839,77.0363428 L292.551839,102.264965 C292.551839,103.265141 291.85576,104.091466 290.941095,104.309311 C289.93995,104.526625 288.98178,104.048004 288.590236,103.178216 Z" id="Fill-1" fill="#FFFFFF" sketch:type="MSShapeGroup"></path>
                    <g id="Group-47">
                        <mask id="mask-2" sketch:name="Clip 46" fill="white">
                            <use xlink:href="#path-1"></use>
                        </mask>
                        <g id="Clip-46"></g>
                        <path d="M41.2134581,68.3824558 C30.3085713,68.3824558 20.036098,71.3421731 12.2885033,76.7172615 C4.36423606,82.214788 -5.30548154e-05,89.5817491 -5.30548154e-05,97.4601943 C-5.30548154e-05,100.532279 1.6663987,103.380689 4.69211482,105.479629 C7.5411584,107.456131 11.3000921,108.544823 15.2776116,108.544823 L23.4618474,108.544823 L41.2134581,108.544823 L58.9650688,108.544823 C65.0080122,108.544823 69.9240714,103.572562 69.9240714,97.4601943 C69.9240714,81.4266254 57.0444844,68.3824558 41.2134581,68.3824558" id="Fill-45" fill="#D19137" sketch:type="MSShapeGroup" mask="url(#mask-2)"></path>
                    </g>
                    <mask id="mask-4" sketch:name="Clip 49" fill="white">
                        <use xlink:href="#path-3"></use>
                    </mask>
                    <g id="Clip-49"></g>
                    <path d="M120.809528,89.1503534 L15.0346736,89.1503534 L15.0346736,3.79611307 L120.809528,3.79611307 L120.809528,89.1503534 Z" id="Fill-48" fill="#BDE2F1" sketch:type="MSShapeGroup" mask="url(#mask-4)"></path>
                    <path d="M120.809528,18.8204947 L15.0346736,18.8204947 L15.0346736,9.80565371 L120.809528,9.80565371 L120.809528,18.8204947 Z" id="Fill-50" fill="#A2D8EF" sketch:type="MSShapeGroup" mask="url(#mask-4)"></path>
                    <path d="M120.809528,32.3427562 L15.0346736,32.3427562 L15.0346736,18.8204947 L120.809528,18.8204947 L120.809528,32.3427562 Z" id="Fill-51" fill="#84CFEC" sketch:type="MSShapeGroup" mask="url(#mask-4)"></path>
                    <path d="M120.809528,52.6256184 L15.0346736,52.6256184 L15.0346736,32.3422261 L120.809528,32.3422261 L120.809528,52.6256184 Z" id="Fill-52" fill="#5DC4E9" sketch:type="MSShapeGroup" mask="url(#mask-4)"></path>
                    <path d="M120.809316,55.4746643 L120.809316,44.0868551 L120.809316,44.0868551 L120.049571,43.6612367 C119.727529,43.4815548 119.337576,43.469364 119.004922,43.6294346 L118.239872,43.9978092 C117.727362,44.2442756 117.111396,44.0725442 116.800494,43.5965724 L110.210025,33.5062898 C110.144768,33.4066431 110.064124,33.3175972 109.970748,33.2423322 L108.780728,32.2882686 C108.398203,31.9813781 107.861289,31.9559364 107.451175,32.2251943 L106.359307,32.9412721 C105.977312,33.1919788 105.48178,33.1887986 105.102969,32.9322615 L99.4314089,29.0948057 C99.008562,28.8085866 98.4456505,28.8409187 98.0583503,29.1737809 L96.4226703,30.5794346 C95.9817848,30.9578799 95.3260273,30.9419788 94.9047721,30.5418021 L88.1546079,24.1315548 C87.6956838,23.6953357 86.9667106,23.7207774 86.5396193,24.1882686 L85.37878,25.4577032 C85.0896312,25.7736042 84.6471541,25.8997527 84.2349182,25.7831449 L74.6977845,23.0836749 C74.1454839,22.9273145 73.5640031,23.2082332 73.3438257,23.7377385 L72.9931333,24.5826148 C72.6997402,25.2875618 71.8025833,25.5080565 71.2147359,25.0103534 C70.7775642,24.6403887 70.1111958,24.7267845 69.7090403,25.1343816 L66.9040322,27.9759011 C66.5368928,28.3474558 65.9623092,28.4200707 65.5145266,28.1502827 L58.0014341,23.6312014 C57.6931857,23.4462191 57.3154354,23.4181272 56.9833122,23.5559364 L52.0253397,25.6119435 C51.4963832,25.8313781 50.887314,25.6214841 50.6055929,25.1237809 L47.918897,20.3709541 C47.5581243,19.7333216 46.6949224,19.6013428 46.1595994,20.1016961 L44.0188376,22.1052297 C43.5917463,22.5043463 42.9312138,22.5133569 42.4940422,22.125371 L39.5351751,19.5027562 C39.2630039,19.2615901 38.8910896,19.1656537 38.5356224,19.245689 L22.9948059,22.7354417 C22.7788728,22.7836749 22.5820394,22.8944523 22.428711,23.0534629 L15.0344614,30.7130035 L15.0344614,30.7130035 L15.0344614,55.4746643 L15.0339308,55.4746643 L15.0339308,70.8011661 L120.809316,70.8011661 L120.809316,55.4746643 L120.809316,55.4746643 Z" id="Fill-53" fill="#5F99C6" sketch:type="MSShapeGroup" mask="url(#mask-4)"></path>
                </g>
                <g id="Group-67" transform="translate(14.788732, 19.014085)">
                    <g id="Group-57">
                        <mask id="mask-6" sketch:name="Clip 56" fill="white">
                            <use xlink:href="#path-5"></use>
                        </mask>
                        <g id="Clip-56"></g>
                        <path d="M31.705268,4.40372527 L27.4682292,45.4314837 L15.8353806,38.1111211 L31.705268,4.40372527 Z" id="Fill-55" fill="#6EA1CB" sketch:type="MSShapeGroup" mask="url(#mask-6)"></path>
                    </g>
                    <g id="Group-60">
                        <mask id="mask-8" sketch:name="Clip 59" fill="white">
                            <use xlink:href="#path-7"></use>
                        </mask>
                        <g id="Clip-59"></g>
                        <path d="M5.6165088,46.5268336 L8.07344894,6.3141575 L0.179445423,15.0769561 L0.179445423,36.4122815 L0.179445423,36.4122815 L0.179445423,41.3828523 L5.6165088,46.5268336 Z" id="Fill-58" fill="#6EA1CB" sketch:type="MSShapeGroup" mask="url(#mask-8)"></path>
                    </g>
                    <g id="Group-63">
                        <mask id="mask-10" sketch:name="Clip 62" fill="white">
                            <use xlink:href="#path-9"></use>
                        </mask>
                        <g id="Clip-62"></g>
                        <path d="M72.5685264,6.31436962 L70.5470405,41.969054 L54.3001849,36.9316645 L72.5685264,6.31436962 Z" id="Fill-61" fill="#6EA1CB" sketch:type="MSShapeGroup" mask="url(#mask-10)"></path>
                    </g>
                    <g id="Group-66">
                        <mask id="mask-12" sketch:name="Clip 65" fill="white">
                            <use xlink:href="#path-11"></use>
                        </mask>
                        <g id="Clip-65"></g>
                        <path d="M93.8617063,14.1711382 L89.7926817,26.828514 L75.8395373,29.7759623 L93.8617063,14.1711382 Z" id="Fill-64" fill="#6EA1CB" sketch:type="MSShapeGroup" mask="url(#mask-12)"></path>
                    </g>
                </g>
                <g id="Group-119">
                    <path d="M15.0344083,89.1503004 L15.0344083,97.1840459 C15.0455498,126.355071 38.7196695,149.999947 67.9215705,149.999947 L67.922101,149.999947 C97.124002,149.999947 120.798122,126.355071 120.809263,97.1840459 L120.809263,89.1503004 L15.0344083,89.1503004 Z" id="Fill-68" fill="#2F80AA" sketch:type="MSShapeGroup"></path>
                    <mask id="mask-14" sketch:name="Clip 71" fill="white">
                        <use xlink:href="#path-13"></use>
                    </mask>
                    <g id="Clip-71"></g>
                    <path d="M120.809528,89.1503534 L15.0346736,89.1503534 L15.0346736,52.6176678 L120.809528,52.6176678 L120.809528,89.1503534 Z" id="Fill-70" fill="#068DC1" sketch:type="MSShapeGroup" mask="url(#mask-14)"></path>
                    <path d="M97.0842108,141.244452 L120.710051,100.362297 C120.773186,99.3107067 120.809263,98.2511661 120.809263,97.1842049 L120.809263,93.8301413 L91.5643878,144.435795 C93.4733001,143.480671 95.3158938,142.41477 97.0842108,141.244452" id="Fill-72" fill="#008B40" sketch:type="MSShapeGroup" mask="url(#mask-14)"></path>
                    <path d="M119.52539,108.773057 L103.80684,135.97235 C111.543293,128.829064 117.138454,119.407686 119.52539,108.773057" id="Fill-73" fill="#008B40" sketch:type="MSShapeGroup" mask="url(#mask-14)"></path>
                    <path d="M101.459695,89.1504064 L66.3092877,149.973021 C66.8451413,149.989452 67.3825866,150.000053 67.9221541,150.000053 L67.9221541,150.000053 C68.6166416,150.000053 69.3068848,149.982562 69.9955363,149.95606 L105.135332,89.1504064 L101.459695,89.1504064 Z" id="Fill-74" fill="#008B40" sketch:type="MSShapeGroup" mask="url(#mask-14)"></path>
                    <path d="M74.5895527,89.1504064 L77.5123425,90.8359187 C77.8927455,91.0553534 78.0232604,91.5419258 77.8036134,91.9219611 L77.0077912,93.2989929 C76.7876137,93.6795583 76.3011011,93.809947 75.920698,93.5899823 L68.2229749,89.1504064 L61.856397,89.1504064 L74.3290536,96.344576 C74.7094566,96.5640106 74.8399715,97.050053 74.6203245,97.4306184 L73.8245023,98.8076502 C73.6043248,99.1876855 73.1178121,99.3180742 72.7374091,99.0986396 L55.4898192,89.1504064 L49.1232413,89.1504064 L71.1457647,101.852703 C71.5261677,102.072138 71.6566825,102.55818 71.4370356,102.938746 L70.6412134,104.315777 C70.4210359,104.696343 69.9345232,104.826201 69.5541202,104.606767 L42.7566635,89.1504064 L36.3900856,89.1504064 L67.9624757,107.36083 C68.3428788,107.580265 68.4733936,108.066837 68.2537467,108.446873 L67.4579244,109.823905 C67.237747,110.20447 66.7512343,110.334329 66.3708313,110.114894 L30.0235078,89.1504064 L23.65693,89.1504064 L64.7791868,112.869488 C65.1595898,113.088922 65.2901047,113.574965 65.0704577,113.955 L64.2746355,115.332032 C64.054458,115.712597 63.5679454,115.842986 63.1875423,115.623551 L17.2903521,89.1504064 L15.0344614,89.1504064 L15.0344614,91.5212544 L61.5958979,118.377615 C61.9763009,118.597049 62.1068158,119.083092 61.8871688,119.463657 L61.0913466,120.840689 C60.8711691,121.220724 60.3846565,121.351113 60.0042534,121.131678 L15.0344614,95.1933392 L15.0344614,97.1841519 C15.0349919,97.7528799 15.0471945,98.3189576 15.0652332,98.8834452 L58.412609,123.885742 C58.793012,124.105177 58.9235268,124.591749 58.7038799,124.971784 L57.9080577,126.348816 C57.6878802,126.728852 57.2013675,126.85977 56.8209645,126.639806 L15.3230796,102.70447 C15.4642054,104.055 15.6562638,105.389629 15.8971327,106.707827 L55.22932,129.393869 C55.6097231,129.613304 55.7402379,130.099876 55.520591,130.480442 L54.7247687,131.856943 C54.5045913,132.237509 54.0180786,132.367898 53.6376756,132.148463 L16.8521193,110.930618 C17.2632942,112.45712 17.7386653,113.95765 18.280355,115.426378 L52.0460311,134.902527 C52.4264341,135.121961 52.556949,135.608004 52.3373021,135.988569 L51.5414798,137.365601 C51.3213023,137.745636 50.8347897,137.876025 50.4543867,137.65659 L20.3643481,120.301113 C21.2821964,122.180088 22.3072155,123.997049 23.4330386,125.742986 L48.8627422,140.410654 C49.2431452,140.630088 49.3736601,141.116131 49.1540131,141.496696 L48.3581909,142.873728 C48.1380134,143.254293 47.6515008,143.384152 47.2710977,143.164717 L28.4207218,132.292102 C34.1734555,138.743693 41.4828174,143.778498 49.7630824,146.80288 L83.0809759,89.1504064 L74.5895527,89.1504064 Z" id="Fill-75" fill="#008B40" sketch:type="MSShapeGroup" mask="url(#mask-14)"></path>
                    <path d="M86.7566666,89.1504064 L52.8509257,147.819488 C53.9014111,148.131148 54.964099,148.414187 56.0405812,148.660654 L90.4323042,89.1504064 L86.7566666,89.1504064 Z" id="Fill-76" fill="#008B40" sketch:type="MSShapeGroup" mask="url(#mask-14)"></path>
                    <path d="M94.1082071,89.1504064 L59.3445699,149.304647 C60.4725152,149.488569 61.6121327,149.638039 62.7634222,149.749346 L97.7838447,89.1504064 L94.1082071,89.1504064 Z" id="Fill-77" fill="#008B40" sketch:type="MSShapeGroup" mask="url(#mask-14)"></path>
                    <path d="M86.6434476,146.589859 L119.838254,89.1504594 L116.162616,89.1504594 L82.1099136,148.073958 C83.6506255,147.646749 85.1626877,147.150106 86.6434476,146.589859" id="Fill-78" fill="#008B40" sketch:type="MSShapeGroup" mask="url(#mask-14)"></path>
                    <path d="M77.862239,149.064064 L112.486873,89.1504594 L108.811235,89.1504594 L73.8369702,149.669364 C75.1946429,149.518304 76.5369297,149.31583 77.862239,149.064064" id="Fill-79" fill="#008B40" sketch:type="MSShapeGroup" mask="url(#mask-14)"></path>
                    <path d="M64.2744233,115.332244 L65.0702455,113.955212 C65.2898925,113.575177 65.1593776,113.088604 64.7789746,112.86917 L23.6567177,89.1506184 L17.2901399,89.1506184 L63.1873301,115.623233 C63.5677332,115.842668 64.0547764,115.712279 64.2744233,115.332244" id="Fill-80" fill="#00A14B" sketch:type="MSShapeGroup" mask="url(#mask-14)"></path>
                    <path d="M67.4577122,109.824064 L68.2535344,108.447032 C68.4731814,108.066996 68.3426665,107.580424 67.9622635,107.360989 L36.3898734,89.1505654 L30.0232956,89.1505654 L66.3706191,110.115053 C66.7510221,110.334488 67.2380653,110.204099 67.4577122,109.824064" id="Fill-81" fill="#00A14B" sketch:type="MSShapeGroup" mask="url(#mask-14)"></path>
                    <path d="M61.0911344,120.840424 L61.8869566,119.463392 C62.1066035,119.083357 61.9760887,118.597314 61.5956857,118.37735 L15.0342491,91.5215194 L15.0342491,95.1936042 L60.0040412,121.131413 C60.3844442,121.350848 60.8714874,121.220989 61.0911344,120.840424" id="Fill-82" fill="#00A14B" sketch:type="MSShapeGroup" mask="url(#mask-14)"></path>
                    <path d="M57.9078455,126.348869 L58.7036677,124.971837 C58.9233146,124.591802 58.7927998,124.10523 58.4123967,123.885795 L15.0650209,98.8834982 C15.1064037,100.168834 15.1918219,101.443569 15.3233979,102.704523 L56.8207523,126.639859 C57.2011553,126.859293 57.6881985,126.728905 57.9078455,126.348869" id="Fill-83" fill="#00A14B" sketch:type="MSShapeGroup" mask="url(#mask-14)"></path>
                    <path d="M54.7245565,131.857049 L55.5203788,130.480018 C55.7400257,130.099982 55.6095108,129.61341 55.2291078,129.393975 L15.8969204,106.707403 C16.1579501,108.136378 16.4784012,109.544152 16.8519071,110.930724 L53.6374634,132.148039 C54.0178664,132.367473 54.5049096,132.237615 54.7245565,131.857049" id="Fill-84" fill="#00A14B" sketch:type="MSShapeGroup" mask="url(#mask-14)"></path>
                    <path d="M51.5412676,137.365495 L52.3370898,135.988463 C52.5567368,135.608428 52.4262219,135.121855 52.0458189,134.90242 L18.2801427,115.426272 C18.8945175,117.092703 19.5916578,118.718852 20.3646664,120.301007 L50.4541744,137.656484 C50.8345775,137.875919 51.3216207,137.74553 51.5412676,137.365495" id="Fill-85" fill="#00A14B" sketch:type="MSShapeGroup" mask="url(#mask-14)"></path>
                    <path d="M48.3579787,142.873675 L49.1538009,141.496643 C49.3734478,141.116608 49.242933,140.630035 48.86253,140.410601 L23.433357,125.742933 C24.9252584,128.057067 26.595424,130.245053 28.4210402,132.292049 L47.2708855,143.164664 C47.6512885,143.384099 48.1383317,143.25424 48.3579787,142.873675" id="Fill-86" fill="#00A14B" sketch:type="MSShapeGroup" mask="url(#mask-14)"></path>
                    <path d="M103.806893,135.97235 L119.525443,108.773057 C120.138226,106.043375 120.53879,103.233657 120.710157,100.362456 L97.0843169,141.244611 C99.4675393,139.667756 101.715472,137.903799 103.806893,135.97235" id="Fill-87" fill="#00A14B" sketch:type="MSShapeGroup" mask="url(#mask-14)"></path>
                    <path d="M91.5642287,144.43553 L120.809635,93.8304064 L120.809635,89.1501943 L119.838201,89.1501943 L86.6433946,146.589594 C88.3262933,145.953551 89.9683398,145.233763 91.5642287,144.43553" id="Fill-88" fill="#00A14B" sketch:type="MSShapeGroup" mask="url(#mask-14)"></path>
                    <path d="M82.1099667,148.074117 L116.162669,89.1506184 L112.487032,89.1506184 L77.8623982,149.064223 C79.2996531,148.791254 80.7167472,148.461042 82.1099667,148.074117" id="Fill-89" fill="#00A14B" sketch:type="MSShapeGroup" mask="url(#mask-14)"></path>
                    <path d="M108.811182,89.1504064 L105.135544,89.1504064 L69.9952179,149.95606 C71.2881638,149.905707 72.568907,149.8103 73.8369171,149.669311 L108.811182,89.1504064 Z" id="Fill-90" fill="#00A14B" sketch:type="MSShapeGroup" mask="url(#mask-14)"></path>
                    <path d="M97.7839508,89.1504064 L62.7629977,149.749346 C63.934448,149.862774 65.1170399,149.937509 66.3097121,149.973021 L101.459588,89.1504064 L97.7839508,89.1504064 Z" id="Fill-91" fill="#00A14B" sketch:type="MSShapeGroup" mask="url(#mask-14)"></path>
                    <path d="M90.4324103,89.1504064 L56.0406873,148.660654 C57.1293721,148.9103 58.2313207,149.123375 59.3444107,149.304647 L94.1080479,89.1504064 L90.4324103,89.1504064 Z" id="Fill-92" fill="#00A14B" sketch:type="MSShapeGroup" mask="url(#mask-14)"></path>
                    <path d="M83.0809229,89.1504064 L49.7630294,146.80288 C50.777968,147.173375 51.8082925,147.510477 52.8508196,147.819488 L86.7565605,89.1504064 L83.0809229,89.1504064 Z" id="Fill-93" fill="#00A14B" sketch:type="MSShapeGroup" mask="url(#mask-14)"></path>
                    <path d="M74.0213356,7.39606007 C74.0213356,7.84818021 74.019744,8.11743816 73.937509,8.28015901 C74.019744,8.11743816 74.0213356,7.84818021 74.0213356,7.39606007 C74.0213356,6.50719081 74.0181524,4.91973498 73.3910444,3.18280919 C74.0186829,4.91920495 74.0213356,6.50719081 74.0213356,7.39606007 M77.2449462,36.420265 C76.0225633,34.3266254 74.9662419,32.5186749 74.531723,30.9964134 C73.3740669,26.9437633 73.2690184,12.3916431 73.2605296,9.04606007 C74.2924458,8.99199647 74.5518838,8.70312721 74.5518838,7.39606007 C74.5518838,6.24853357 74.5518838,3.85913428 73.1862529,1.47397527 C72.9994999,1.47609541 72.8238885,1.37326855 72.7289203,1.21213781 L62.3927812,1.21213781 C62.2978131,1.37326855 62.1222017,1.47609541 61.9354487,1.47397527 C60.5698178,3.85966431 60.5698178,6.24853357 60.5698178,7.39606007 C60.5698178,8.70312721 60.8297864,8.99199647 61.861172,9.04606007 C61.8526832,12.3916431 61.7481652,26.9437633 60.5905091,30.9964134 C60.1554596,32.5186749 59.0996688,34.3266254 57.8767553,36.420265 C55.6229868,40.2794523 52.8179787,45.0821025 52.8179787,50.3644346 L52.8179787,101.247827 C52.8179787,102.803481 53.5283827,103.458604 55.5327936,103.751184 C57.5090855,104.038993 61.079144,104.038993 67.5608508,104.038993 C74.0425576,104.038993 77.6131467,104.038993 79.588908,103.751184 C81.5938494,103.458604 82.3042534,102.803481 82.3042534,101.247827 L82.3042534,50.3644346 C82.3042534,45.0821025 79.4992453,40.2794523 77.2449462,36.420265" id="Fill-94" fill="#74892A" sketch:type="MSShapeGroup" mask="url(#mask-14)"></path>
                    <path d="M72.7291326,0.152332155 L62.3924629,0.152332155 C61.8210625,0.152332155 61.2936977,0.45869258 61.0103849,0.954275618 C59.5089337,3.58219081 59.5089337,6.15816254 59.5089337,7.39632509 C59.5089337,8.1675265 59.5089337,8.96522968 60.2135016,9.58166078 C60.399724,9.74438163 60.5933741,9.85780919 60.7971046,9.93678445 C60.7631495,16.7578092 60.4766535,27.5323675 59.5699467,30.705689 C59.1720356,32.099682 58.1470166,33.8540989 56.9601803,35.8857244 C54.6416849,39.855689 51.756564,44.7956184 51.756564,50.3641696 L51.756564,101.247562 C51.756564,102.655866 52.1682694,104.331837 55.3796774,104.799859 C57.4318376,105.099329 61.0294847,105.099329 67.561063,105.099329 C74.0921108,105.099329 77.6897578,105.099329 79.7424486,104.799859 C82.953326,104.331837 83.3650314,102.655866 83.3650314,101.247562 L83.3650314,50.3641696 C83.3650314,44.7956184 80.4799105,39.855689 78.1614151,35.8857244 C76.9751094,33.8540989 75.9500904,32.099682 75.5516487,30.705689 C74.6454725,27.5323675 74.3589765,16.7578092 74.3244909,9.93678445 C74.5287519,9.85833922 74.722402,9.74438163 74.9086244,9.58166078 C75.6131923,8.96522968 75.6131923,8.1675265 75.6131923,7.39632509 C75.6131923,6.15816254 75.6131923,3.58219081 74.1112105,0.954275618 C73.8284283,0.458162544 73.3005329,0.152332155 72.7291326,0.152332155 M72.7291326,1.74243816 C74.0215479,4.00409894 74.0215479,6.26522968 74.0215479,7.39632509 C74.0215479,8.52689046 74.0215479,8.52689046 72.7291326,8.52689046 C72.7291326,9.65745583 72.7291326,26.6185866 74.0215479,31.1419081 C75.3134326,35.6646996 81.7733869,42.4491519 81.7733869,50.3641696 L81.7733869,101.247562 C81.7733869,103.509223 80.4815022,103.509223 67.561063,103.509223 C54.6406238,103.509223 53.3482085,103.509223 53.3482085,101.247562 L53.3482085,50.3641696 C53.3482085,42.4491519 59.8086934,35.6646996 61.1005781,31.1419081 C62.3924629,26.6185866 62.3924629,9.65745583 62.3924629,8.52689046 C61.1005781,8.52689046 61.1005781,8.52689046 61.1005781,7.39632509 C61.1005781,6.26522968 61.1005781,4.00409894 62.3924629,1.74243816 L72.7291326,1.74243816" id="Fill-95" fill="#5D772F" sketch:type="MSShapeGroup" mask="url(#mask-14)"></path>
                    <path d="M63.1244071,103.49258 C61.3072797,103.20318 60.9831148,102.350883 60.9831148,101.24788 L60.9831148,50.3644876 C60.9831148,42.4489399 64.5250542,35.6644876 65.816939,31.1416961 C67.1093543,26.6189046 67.1093543,9.65777385 67.1093543,8.52667845 C65.816939,8.52667845 65.816939,8.52667845 65.816939,7.39611307 C65.816939,6.2655477 65.816939,4.00388693 67.1093543,1.74222615 L64.2496998,1.74222615 C62.957815,4.00388693 62.957815,6.2655477 62.957815,7.39611307 C62.957815,8.52667845 62.957815,8.52667845 64.2496998,8.52667845 C64.2496998,9.65777385 64.2496998,26.6189046 62.957815,31.1416961 C61.6653997,35.6644876 55.2054454,42.4489399 55.2054454,50.3644876 L55.2054454,101.24788 C55.2054454,103.069611 56.0437115,103.423675 63.1244071,103.49258" id="Fill-96" fill="#8A9743" sketch:type="MSShapeGroup" mask="url(#mask-14)"></path>
                    <path d="M53.3482085,90.3169611 L76.2954773,90.3169611 L76.2954773,55.2031802 L53.3482085,55.2031802 L53.3482085,90.3169611 Z" id="Fill-97" fill="#FFFBDB" sketch:type="MSShapeGroup" mask="url(#mask-14)"></path>
                    <path d="M60.9827964,55.2031802 L55.205127,55.2031802 L55.205127,90.3169611 L60.9827964,90.3169611 L60.9827964,55.2031802 Z" id="Fill-98" fill="#FEFEFE" sketch:type="MSShapeGroup" mask="url(#mask-14)"></path>
                    <path d="M41.213352,106.954664 L15.2775055,106.954664 C7.71878593,106.954664 1.5914853,102.703781 1.5914853,97.4601413 L1.5914853,97.4601413 C1.5914853,82.2793993 19.3308934,69.9725088 41.213352,69.9725088 L41.213352,69.9725088" id="Fill-99" fill="#F1B75A" sketch:type="MSShapeGroup" mask="url(#mask-14)"></path>
                    <path d="M58.9650688,106.954664 L23.4618474,106.954664 C18.2884724,106.954664 14.0944892,102.703781 14.0944892,97.4601413 L14.0944892,97.4601413 C14.0944892,82.2793993 26.2360837,69.9725088 41.2134581,69.9725088 L41.2134581,69.9725088 C56.1908325,69.9725088 68.332427,82.2793993 68.332427,97.4601413 L68.332427,97.4601413 C68.332427,102.703781 64.1384438,106.954664 58.9650688,106.954664" id="Fill-100" fill="#FFF3D7" sketch:type="MSShapeGroup" mask="url(#mask-14)"></path>
                    <path d="M28.354138,89.97 C28.2183177,89.97 28.0824974,89.9180565 27.9790405,89.8146996 L26.4335537,88.2701767 C26.2261094,88.0629329 26.2261094,87.7279505 26.4335537,87.5207067 C26.640998,87.3134629 26.9763045,87.3134629 27.1837488,87.5207067 L28.7292356,89.0652297 C28.9366799,89.2724735 28.9366799,89.6074558 28.7292356,89.8146996 C28.6257787,89.9180565 28.4899584,89.97 28.354138,89.97" id="Fill-101" fill="#F5DFB0" sketch:type="MSShapeGroup" mask="url(#mask-14)"></path>
                    <path d="M30.656664,89.97 C30.5208436,89.97 30.3850233,89.9180565 30.2815664,89.8146996 L28.7360797,88.2701767 C28.5286353,88.0629329 28.5286353,87.7279505 28.7360797,87.5207067 C28.943524,87.3134629 29.2788304,87.3134629 29.4862747,87.5207067 L31.0317615,89.0652297 C31.2392058,89.2724735 31.2392058,89.6074558 31.0317615,89.8146996 C30.9283046,89.9180565 30.7924843,89.97 30.656664,89.97" id="Fill-102" fill="#F5DFB0" sketch:type="MSShapeGroup" mask="url(#mask-14)"></path>
                    <path d="M56.3887269,99.6043463 C56.2529066,99.6043463 56.1170863,99.5524028 56.0136294,99.4490459 L54.4681426,97.905053 C54.2606983,97.6978092 54.2606983,97.3628269 54.4681426,97.155583 C54.6755869,96.9483392 55.0108934,96.9483392 55.2183377,97.155583 L56.7638245,98.699576 C56.9712688,98.9068198 56.9712688,99.2418021 56.7638245,99.4490459 C56.6603676,99.5524028 56.5245472,99.6043463 56.3887269,99.6043463" id="Fill-103" fill="#F5DFB0" sketch:type="MSShapeGroup" mask="url(#mask-14)"></path>
                    <path d="M58.6912529,99.6043463 C58.5554325,99.6043463 58.4196122,99.5524028 58.3161553,99.4490459 L56.7706685,97.905053 C56.5632242,97.6978092 56.5632242,97.3628269 56.7706685,97.155583 C56.9781129,96.9483392 57.3134193,96.9483392 57.5208636,97.155583 L59.0663504,98.699576 C59.2737947,98.9068198 59.2737947,99.2418021 59.0663504,99.4490459 C58.9628935,99.5524028 58.8270732,99.6043463 58.6912529,99.6043463" id="Fill-104" fill="#F5DFB0" sketch:type="MSShapeGroup" mask="url(#mask-14)"></path>
                    <path d="M48.0383234,78.3584099 C47.9025031,78.3584099 47.7666828,78.3064664 47.6632259,78.2031095 L46.1172086,76.6585866 C45.9097642,76.4513428 45.9097642,76.1163604 46.1172086,75.9091166 C46.3246529,75.7018728 46.6599593,75.7018728 46.8674036,75.9091166 L48.413421,77.4536396 C48.6208653,77.6608834 48.6208653,77.9958657 48.413421,78.2031095 C48.3099641,78.3064664 48.1741437,78.3584099 48.0383234,78.3584099" id="Fill-105" fill="#F5DFB0" sketch:type="MSShapeGroup" mask="url(#mask-14)"></path>
                    <path d="M9.65385421,90.2091519 C9.63899886,90.2091519 9.62308241,90.2075618 9.60769652,90.2049117 C9.47771222,90.1821201 9.38433574,90.0671025 9.38858013,89.9351237 C9.38964123,89.9070318 9.49256757,87.0702827 10.3706248,83.8301767 C11.5399529,79.5114488 13.5507304,76.4308834 16.1854325,74.9202827 C20.6866031,72.3406007 23.7070137,71.7114488 23.8332842,71.685477 C23.9569019,71.6589753 24.0757447,71.7231095 24.1266773,71.834417 C24.1781405,71.9462544 24.145777,72.0787633 24.0492173,72.1545583 C15.4256876,78.8722261 12.2530096,82.8808834 9.90586458,90.0268198 C9.8697873,90.1370671 9.76686096,90.2091519 9.65385421,90.2091519" id="Fill-106" fill="#F8D9A1" sketch:type="MSShapeGroup" mask="url(#mask-14)"></path>
                    <path d="M41.2134581,68.3824558 C30.3085713,68.3824558 20.036098,71.3421731 12.2885033,76.7172615 C4.36423606,82.214788 -5.30548154e-05,89.5817491 -5.30548154e-05,97.4601943 C-5.30548154e-05,100.532279 1.6663987,103.380689 4.69211482,105.479629 C7.5411584,107.456131 11.3000921,108.544823 15.2776116,108.544823 L23.4618474,108.544823 L41.2134581,108.544823 L58.9650688,108.544823 C65.0080122,108.544823 69.9240714,103.572562 69.9240714,97.4601943 C69.9240714,81.4266254 57.0444844,68.3824558 41.2134581,68.3824558 M41.2134581,69.9725618 C56.1908325,69.9725618 68.332427,82.2789223 68.332427,97.4601943 C68.332427,102.703834 64.1384438,106.954717 58.9650688,106.954717 L41.2134581,106.954717 L23.4618474,106.954717 L15.2776116,106.954717 C7.71889203,106.954717 1.59159141,102.703834 1.59159141,97.4601943 C1.59159141,82.2789223 19.3309995,69.9725618 41.2134581,69.9725618 L41.2134581,69.9725618" id="Fill-107" fill="#D19137" sketch:type="MSShapeGroup" mask="url(#mask-14)"></path>
                    <path d="M41.2134581,68.3824558 C30.3085713,68.3824558 20.036098,71.3421731 12.2885033,76.7172615 C4.36423606,82.214788 -5.30548154e-05,89.5817491 -5.30548154e-05,97.4601943 C-5.30548154e-05,100.532279 1.6663987,103.380689 4.69211482,105.479629 C7.5411584,107.456131 11.3000921,108.544823 15.2776116,108.544823 L23.4618474,108.544823 L41.2134581,108.544823 L58.9650688,108.544823 C65.0080122,108.544823 69.9240714,103.572562 69.9240714,97.4601943 C69.9240714,81.4266254 57.0444844,68.3824558 41.2134581,68.3824558 M41.2134581,69.9725618 C56.1908325,69.9725618 68.332427,82.2789223 68.332427,97.4601943 C68.332427,102.703834 64.1384438,106.954717 58.9650688,106.954717 L41.2134581,106.954717 L23.4618474,106.954717 L15.2776116,106.954717 C7.71889203,106.954717 1.59159141,102.703834 1.59159141,97.4601943 C1.59159141,82.2789223 19.3309995,69.9725618 41.2134581,69.9725618 L41.2134581,69.9725618" id="Fill-108" fill="#D19137" sketch:type="MSShapeGroup" mask="url(#mask-14)"></path>
                    <path d="M114.684138,56.7739929 L93.708386,56.7739929 C93.0388342,56.7739929 92.441437,57.1921908 92.2127707,57.8202827 L74.5099705,106.410742 C74.3322369,106.898375 74.4038609,107.441661 74.7014984,107.866749 C74.9996664,108.291837 75.4861791,108.544664 76.0055857,108.544664 L96.9813376,108.544664 L132.904753,108.542014 C133.783871,108.542014 134.496398,107.830177 134.496398,106.951908 C134.496398,88.6927208 127.886298,71.0658657 115.883707,57.3188693 C115.581295,56.9727562 115.144123,56.7739929 114.684138,56.7739929" id="Fill-109" fill="#D4A464" sketch:type="MSShapeGroup" mask="url(#mask-14)"></path>
                    <path d="M96.9814967,106.954664 L76.0057449,106.954664 L93.7080146,58.3642049 L114.684297,58.3642049 L96.9814967,106.954664 Z" id="Fill-110" fill="#FFEFAF" sketch:type="MSShapeGroup" mask="url(#mask-14)"></path>
                    <path d="M132.904594,106.951855 C132.904594,88.3529152 126.030281,71.3594523 114.683979,58.3640459 L96.9817089,106.954505 L132.904594,106.951855 Z" id="Fill-111" fill="#E8BA6F" sketch:type="MSShapeGroup" mask="url(#mask-14)"></path>
                    <path d="M100.513727,83.8172438 C100.312119,85.1195406 99.0923887,86.175371 97.7888318,86.175371 C96.485275,86.175371 95.5918319,85.1195406 95.7929097,83.8172438 C95.994518,82.514947 97.2142482,81.4591166 98.517805,81.4591166 C99.8213618,81.4591166 100.715335,82.514947 100.513727,83.8172438" id="Fill-112" fill="#FFF9C7" sketch:type="MSShapeGroup" mask="url(#mask-14)"></path>
                    <path d="M84.8764039,101.918163 C84.7708248,102.599258 84.133106,103.151555 83.4513516,103.151555 C82.7695972,103.151555 82.3021843,102.599258 82.4072328,101.918163 C82.5128119,101.237067 83.1505308,100.68477 83.8328157,100.68477 C84.5145701,100.68477 84.981983,101.237067 84.8764039,101.918163" id="Fill-113" fill="#FFF9C7" sketch:type="MSShapeGroup" mask="url(#mask-14)"></path>
                    <path d="M102.428847,70.8503004 C102.323268,71.5313958 101.685549,72.0836926 101.003794,72.0836926 C100.32204,72.0836926 99.8546272,71.5313958 99.9596757,70.8503004 C100.065255,70.1692049 100.702974,69.6169081 101.385259,69.6169081 C102.067013,69.6169081 102.534426,70.1692049 102.428847,70.8503004" id="Fill-114" fill="#FFF9C7" sketch:type="MSShapeGroup" mask="url(#mask-14)"></path>
                    <path d="M94.5634174,63.9100707 C94.5130153,64.2355124 94.2079501,64.49947 93.8821936,64.49947 C93.556437,64.49947 93.3330762,64.2355124 93.3834783,63.9100707 C93.4333498,63.584629 93.738415,63.3206714 94.0647021,63.3206714 C94.3904587,63.3206714 94.6138195,63.584629 94.5634174,63.9100707" id="Fill-115" fill="#FFF9C7" sketch:type="MSShapeGroup" mask="url(#mask-14)"></path>
                    <path d="M104.173024,69.0274558 C104.122622,69.3528975 103.817557,69.6168551 103.4918,69.6168551 C103.166043,69.6168551 102.942683,69.3528975 102.993085,69.0274558 C103.042956,68.7020141 103.348022,68.4380565 103.674309,68.4380565 C104.000065,68.4380565 104.223426,68.7020141 104.173024,69.0274558" id="Fill-116" fill="#FFF9C7" sketch:type="MSShapeGroup" mask="url(#mask-14)"></path>
                    <path d="M96.2707744,62.9440813 C96.2203723,63.269523 95.9153071,63.5334806 95.5895506,63.5334806 C95.263794,63.5334806 95.0404332,63.269523 95.0908353,62.9440813 C95.1407068,62.6186396 95.445772,62.354682 95.7720591,62.354682 C96.0978157,62.354682 96.3211765,62.6186396 96.2707744,62.9440813" id="Fill-117" fill="#FFF9C7" sketch:type="MSShapeGroup" mask="url(#mask-14)"></path>
                    <path d="M95.6735894,86.7647703 C95.6231873,87.090212 95.3181221,87.3541696 94.9923656,87.3541696 C94.666609,87.3541696 94.4432482,87.090212 94.4936503,86.7647703 C94.5435218,86.4393286 94.848587,86.175371 95.1748741,86.175371 C95.5006307,86.175371 95.7239915,86.4393286 95.6735894,86.7647703" id="Fill-118" fill="#FFF9C7" sketch:type="MSShapeGroup" mask="url(#mask-14)"></path>
                </g>
            </g>
        </g>
    </g>
</svg>