<svg width="314" height="150" viewBox="0 0 314 150" xmlns="http://www.w3.org/2000/svg" xmlns:xlink="http://www.w3.org/1999/xlink">
  <title>
    logo
  </title>
  <defs>
    <path id="a" d="M0 .152h314.0007V150H0"/>
    <path id="c" d="M0 .152h314.0007V150H0V.152z"/>
    <path id="e" d="M23.7315.1644L8.1572 3.656c-.217.0482-.4137.159-.568.3187l-7.41 7.663V78.122c0 29.196 23.7293 52.8637 53.0015 52.8637s53.0015-23.6677 53.0015-52.8638v-41.71h-.0005V25.018l-.7614-.4253c-.3227-.1804-.7135-.1926-1.0463-.0324l-.7673.368c-.513.247-1.1303.0753-1.442-.401L95.56 14.4323c-.0652-.0997-.146-.1888-.24-.2635l-1.1927-.955c-.3833-.3072-.9214-.3326-1.3324-.0632l-1.094.717c-.383.2502-.88.247-1.259-.009l-5.684-3.84c-.424-.2864-.988-.254-1.376.079l-1.639 1.4064c-.442.379-1.1.3627-1.522-.0377l-6.764-6.4135c-.461-.4365-1.191-.4105-1.619.0572l-1.163 1.2696c-.29.316-.733.4423-1.147.3256l-9.557-2.7008c-.553-.1565-1.136.1246-1.357.6544l-.352.8453c-.294.706-1.193.926-1.782.429-.439-.37-1.106-.284-1.509.124L52.161 8.9c-.369.3723-.944.4444-1.393.1745l-7.53-4.5212c-.3086-.1854-.687-.2135-1.02-.0756L37.25 6.534c-.53.2195-1.1405.0095-1.4228-.4885L33.135 1.2908c-.3616-.6385-1.2267-.771-1.7632-.2694l-2.146 2.004c-.4273.3993-1.0898.4083-1.5274.0202L24.7326.422c-.2095-.1855-.478-.2852-.7528-.2852-.083 0-.166.009-.2483.0276z"/>
    <path id="g" d="M23.7315.1644L8.1572 3.656c-.217.0482-.4137.159-.568.3187l-7.41 7.663V78.122c0 29.196 23.7293 52.8637 53.0015 52.8637s53.0015-23.6677 53.0015-52.8638v-41.71h-.0005V25.018l-.7614-.4253c-.3227-.1804-.7135-.1926-1.0463-.0324l-.7673.368c-.513.247-1.1303.0753-1.442-.401L95.56 14.4323c-.0652-.0997-.146-.1888-.24-.2635l-1.1927-.955c-.3833-.3072-.9214-.3326-1.3324-.0632l-1.094.717c-.383.2502-.88.247-1.259-.009l-5.684-3.84c-.424-.2864-.988-.254-1.376.079l-1.639 1.4064c-.442.379-1.1.3627-1.522-.0377l-6.764-6.4135c-.461-.4365-1.191-.4105-1.619.0572l-1.163 1.2696c-.29.316-.733.4423-1.147.3256l-9.557-2.7008c-.553-.1565-1.136.1246-1.357.6544l-.352.8453c-.294.706-1.193.926-1.782.429-.439-.37-1.106-.284-1.509.124L52.161 8.9c-.369.3723-.944.4444-1.393.1745l-7.53-4.5212c-.3086-.1854-.687-.2135-1.02-.0756L37.25 6.534c-.53.2195-1.1405.0095-1.4228-.4885L33.135 1.2908c-.3616-.6385-1.2267-.771-1.7632-.2694l-2.146 2.004c-.4273.3993-1.0898.4083-1.5274.0202L24.7326.422c-.2095-.1855-.478-.2852-.7528-.2852-.083 0-.166.009-.2483.0276z"/>
    <path id="i" d="M23.7315.1644L8.1572 3.656c-.217.0482-.4137.159-.568.3187l-7.41 7.663V78.122c0 29.196 23.7293 52.8637 53.0015 52.8637s53.0015-23.6677 53.0015-52.8638v-41.71h-.0005V25.018l-.7614-.4253c-.3227-.1804-.7135-.1926-1.0463-.0324l-.7673.368c-.513.247-1.1303.0753-1.442-.401L95.56 14.4323c-.0652-.0997-.146-.1888-.24-.2635l-1.1927-.955c-.3833-.3072-.9214-.3326-1.3324-.0632l-1.094.717c-.383.2502-.88.247-1.259-.009l-5.684-3.84c-.424-.2864-.988-.254-1.376.079l-1.639 1.4064c-.442.379-1.1.3627-1.522-.0377l-6.764-6.4135c-.461-.4365-1.191-.4105-1.619.0572l-1.163 1.2696c-.29.316-.733.4423-1.147.3256l-9.557-2.7008c-.553-.1565-1.136.1246-1.357.6544l-.352.8453c-.294.706-1.193.926-1.782.429-.439-.37-1.106-.284-1.509.124L52.161 8.9c-.369.3723-.944.4444-1.393.1745l-7.53-4.5212c-.3086-.1854-.687-.2135-1.02-.0756L37.25 6.534c-.53.2195-1.1405.0095-1.4228-.4885L33.135 1.2908c-.3616-.6385-1.2267-.771-1.7632-.2694l-2.146 2.004c-.4273.3993-1.0898.4083-1.5274.0202L24.7326.422c-.2095-.1855-.478-.2852-.7528-.2852-.083 0-.166.009-.2483.0276z"/>
    <path id="k" d="M23.7315.1644L8.1572 3.656c-.217.0482-.4137.159-.568.3187l-7.41 7.663V78.122c0 29.196 23.7293 52.8637 53.0015 52.8637s53.0015-23.6677 53.0015-52.8638v-41.71h-.0005V25.018l-.7614-.4253c-.3227-.1804-.7135-.1926-1.0463-.0324l-.7673.368c-.513.247-1.1303.0753-1.442-.401L95.56 14.4323c-.0652-.0997-.146-.1888-.24-.2635l-1.1927-.955c-.3833-.3072-.9214-.3326-1.3324-.0632l-1.094.717c-.383.2502-.88.247-1.259-.009l-5.684-3.84c-.424-.2864-.988-.254-1.376.079l-1.639 1.4064c-.442.379-1.1.3627-1.522-.0377l-6.764-6.4135c-.461-.4365-1.191-.4105-1.619.0572l-1.163 1.2696c-.29.316-.733.4423-1.147.3256l-9.557-2.7008c-.553-.1565-1.136.1246-1.357.6544l-.352.8453c-.294.706-1.193.926-1.782.429-.439-.37-1.106-.284-1.509.124L52.161 8.9c-.369.3723-.944.4444-1.393.1745l-7.53-4.5212c-.3086-.1854-.687-.2135-1.02-.0756L37.25 6.534c-.53.2195-1.1405.0095-1.4228-.4885L33.135 1.2908c-.3616-.6385-1.2267-.771-1.7632-.2694l-2.146 2.004c-.4273.3993-1.0898.4083-1.5274.0202L24.7326.422c-.2095-.1855-.478-.2852-.7528-.2852-.083 0-.166.009-.2483.0276z"/>
    <path id="m" d="M0 .152h314.0007V150H0V.152z"/>
  </defs>
  <g fill="none" fill-rule="evenodd">
    <path d="M157.2083 7.9436h-3.135v20.7048h3.135c1.7418 0 3.135-1.3924 3.135-3.132V11.0756c0-1.74-1.3932-3.132-3.135-3.132m7.3147 3.132v14.4408c0 4.0452-3.2655 7.3076-7.3147 7.3076h-5.2248c-1.1752 0-2.09-.9138-2.09-2.0878V5.8558c0-1.1746.9148-2.0884 2.09-2.0884h5.2248c4.0492 0 7.3147 3.263 7.3147 7.3082zm10.1617 17.7464c1.6977 0 3.135-1.392 3.135-3.132V5.6812c0-1.174.914-2.0873 2.0898-2.0873 1.1752 0 2.0893.913 2.0893 2.087V25.69c0 4.0458-3.3085 7.308-7.314 7.308-4.0498 0-7.3148-3.2622-7.3148-7.308V5.6812c0-1.174.914-2.0873 2.0898-2.0873 1.1752 0 2.09.913 2.09 2.087V25.69c0 1.74 1.393 3.132 3.135 3.132zM194.537 3.681c1.0887-.3047 2.2644.3477 2.569 1.4348.566 2.045 1.132 4.1327 1.6982 6.2205 1.0017 3.6106 2.2203 8.047 3.2655 11.7446 1.0012-3.698 2.2204-8.134 3.2215-11.745.566-2.088 1.1322-4.176 1.6983-6.221.3045-1.087 1.4802-1.74 2.5684-1.435 1.176.304 1.785 1.392 1.48 2.566l-6.966 25.228c-.305.913-1.089 1.522-2.003 1.522-1.002 0-1.742-.609-2.047-1.522l-6.966-25.227c-.305-1.175.305-2.263 1.48-2.567zm18.5515 27.229V5.6813c0-1.174.9146-2.0872 2.0898-2.0872 1.1762 0 2.0903.914 2.0903 2.088V30.91c0 1.1745-.914 2.0878-2.0903 2.0878-1.1752 0-2.0898-.9133-2.0898-2.0878zm19.954.9133c-.8707-1.8705-1.7854-3.7404-2.743-5.698-1.6107-3.3062-3.701-7.5248-5.486-11.3092V30.91c0 1.1746-.9145 2.088-2.0902 2.088-1.1752 0-2.09-.9134-2.09-2.088V5.6815c0-1 .6097-1.8265 1.6114-2.0443 1.0012-.2172 1.8723.261 2.351 1.1312.871 1.8705 1.7852 3.741 2.7428 5.698 1.6113 3.3057 3.614 7.5253 5.4864 11.3092V5.6814c0-1.174.914-2.0872 2.089-2.0872 1.175 0 2.09.9132 2.09 2.0872V30.91c0 1.0002-.696 1.8266-1.611 2.0444-1.001.2173-1.96-.2613-2.351-1.131zM157.2082 43.621h-3.135v20.705h3.135c1.7418 0 3.135-1.3924 3.135-3.132V46.753c0-1.74-1.3932-3.132-3.135-3.132zm7.3147 3.132v14.441c0 4.045-3.266 7.3074-7.315 7.3074h-5.225c-1.175 0-2.09-.9137-2.09-2.0878V41.5333c0-1.1746.915-2.0884 2.09-2.0884h5.225c4.049 0 7.314 3.262 7.314 7.308zm10.161 17.7464c1.697 0 3.135-1.392 3.135-3.132V41.3586c0-1.174.914-2.0873 2.09-2.0873 1.175 0 2.089.9133 2.089 2.0873v20.0088c0 4.0458-3.309 7.3082-7.314 7.3082-4.05 0-7.315-3.2624-7.315-7.3082V41.3586c0-1.174.914-2.0873 2.089-2.0873 1.175 0 2.09.9133 2.09 2.0873v20.0088c0 1.74 1.393 3.132 3.135 3.132zm19.852 1.9143V41.5333c0-1.1746.914-2.0883 2.089-2.0883h8.708c1.175 0 2.089.9137 2.089 2.0883 0 1.1746-.914 2.0878-2.09 2.0878h-6.618v7.83h5.747c1.175 0 2.089.913 2.089 2.089 0 1.174-.914 2.088-2.09 2.088h-5.747v10.787c0 1.174-.914 2.088-2.0903 2.088-1.175 0-2.09-.913-2.09-2.087zm22.618-14.0933c1.742 0 3.135-1.3924 3.135-3.132V46.753c0-1.7402-1.393-3.132-3.135-3.132h-3.135v8.6994h3.135zm3.396 3.3493l3.787 10.1783c.479 1.087-.131 2.305-1.219 2.6968-1.089.3912-2.22-.131-2.699-1.218L216.37 56.496h-2.351v10.0914c0 1.1745-.914 2.0878-2.09 2.0878-1.175 0-2.0896-.9133-2.0896-2.0878V41.533c0-1.174.9146-2.0877 2.09-2.0877h5.225c4.049 0 7.3144 3.2624 7.3144 7.3076v2.435c0 2.827-1.5236 5.263-3.9185 6.481zm10.337-9.091v14.789c0 1.74 1.393 3.132 3.135 3.132 1.741 0 3.134-1.392 3.134-3.132v-14.789c0-1.7397-1.394-3.132-3.135-3.132-1.742 0-3.135 1.3923-3.135 3.132zm-4.18 14.789v-14.789c0-4.0453 3.265-7.3072 7.314-7.3072 4.049 0 7.314 3.262 7.314 7.307v14.7892c0 4.0457-3.266 7.3075-7.315 7.3075-4.05 0-7.315-3.2618-7.315-7.3075zm17.671 5.2197V41.3588c0-.9996.609-1.8265 1.611-2.0443 1.001-.2173 1.959.2607 2.351 1.175.566 1.261 1.175 2.5225 1.785 3.784 1.001 2.2187 2.308 4.828 3.309 6.9593 1.002-2.1312 2.264-4.7406 3.265-6.9593.565-1.2615 1.175-2.523 1.785-3.784.479-.9143 1.349-1.3923 2.351-1.175 1.001.2178 1.654 1.0447 1.654 2.0443v25.2286c0 1.1746-.914 2.0878-2.09 2.0878-1.175 0-2.09-.9132-2.09-2.0878V50.7108c-.74 1.5662-1.481 3.132-2.047 4.3065-.305.696-.653 1.3484-.958 2.001-.348.7393-1.0446 1.218-1.8717 1.218-.9146 0-1.5237-.3918-1.916-1.218-.304-.6526-.653-1.305-.9574-2.001-.566-1.1746-1.307-2.7403-2.003-4.3065v15.8766c0 1.1746-.9145 2.0878-2.09 2.0878-1.175 0-2.0898-.9132-2.0898-2.0878zM273.4 49.232c-.8274 2.8278-1.698 6.177-2.525 9.178h5.05c-.827-3.001-1.6976-6.3502-2.5253-9.178zm7.5325 19.3564c-1.176.3047-2.2643-.3477-2.569-1.4354-.1304-.3482-.218-.7828-.3484-1.2614-.217-.827-.565-1.9575-.914-3.306H269.7c-.3914 1.3485-.6964 2.479-.914 3.306-.1305.4786-.218.9132-.3485 1.2614-.305 1.0877-1.3933 1.74-2.569 1.4354-1.088-.3048-1.7417-1.392-1.4367-2.5665l6.966-25.229c.2177-.913 1.0014-1.522 2.003-1.522 1.0017 0 1.7853.608 2.003 1.521l6.967 25.228c.305 1.174-.3486 2.261-1.4367 2.566zm17.292-14.18v6.9594c0 4.0452-3.265 7.3076-7.3143 7.3076-4.0056 0-7.314-3.2624-7.314-7.3076v-14.789c0-3.306 2.1762-6.22 5.4417-7.0464 3.178-.8263 6.574.478 8.229 3.3928.566 1.0007.218 2.2182-.784 2.8706-1.001.565-2.264.2174-2.83-.7833-.74-1.2175-2.177-1.8265-3.527-1.4354-1.394.349-2.352 1.61-2.352 3.002v14.789c0 1.74 1.437 3.132 3.135 3.132 1.742 0 3.134-1.391 3.134-3.131v-4.872h-2.263c-1.175 0-2.0898-.913-2.0898-2.087 0-1.174.9144-2.088 2.0896-2.088h4.3543c1.1756 0 2.0897.914 2.0897 2.088zm4.976-14.9633h8.708c1.1755 0 2.0896.914 2.0896 2.088 0 1.175-.914 2.089-2.09 2.089h-6.618v7.829h5.747c1.176 0 2.091.913 2.091 2.088s-.915 2.089-2.09 2.089h-5.747v8.699h6.618c1.176 0 2.09.914 2.09 2.089 0 1.174-.914 2.088-2.09 2.088H303.2c-1.175 0-2.0896-.913-2.0896-2.087V41.533c0-1.174.9145-2.0877 2.0897-2.0877zM151.983 75.123h8.708c1.1755 0 2.0896.9138 2.0896 2.088 0 1.175-.914 2.0882-2.09 2.0882h-6.618v7.829h5.747c1.1756 0 2.0903.9133 2.0903 2.088 0 1.1744-.915 2.0882-2.09 2.0882h-5.747v8.699h6.618c1.175 0 2.09.9138 2.09 2.0884 0 1.174-.914 2.0873-2.09 2.0873h-8.708c-1.175 0-2.09-.913-2.09-2.087V77.211c0-1.174.914-2.088 2.09-2.088zm28.0867 2.088c0 1.1746-.9146 2.0878-2.09 2.0878h-3.57v22.9665c0 1.1745-.9146 2.0883-2.09 2.0883-1.175 0-2.09-.9137-2.09-2.0882v-22.967h-3.5707c-1.1752 0-2.0893-.9132-2.0893-2.0878 0-1.174.914-2.0878 2.0894-2.0878h11.321c1.176 0 2.09.9138 2.09 2.0878zm18.459 2.088h-3.135v20.7048h3.135c1.742 0 3.135-1.3925 3.135-3.132v-14.441c0-1.74-1.393-3.132-3.135-3.132zm7.3146 3.132v14.4408c0 4.0452-3.2657 7.3076-7.3148 7.3076h-5.225c-1.175 0-2.0898-.914-2.0898-2.088V77.211c0-1.1746.9147-2.0884 2.0898-2.0884h5.225c4.049 0 7.3147 3.263 7.3147 7.3082zm10.1615 17.7464c1.698 0 3.135-1.392 3.135-3.132V77.036c0-1.174.9143-2.0872 2.09-2.0872 1.175 0 2.0893.9132 2.0893 2.0873v20.009c0 4.046-3.308 7.308-7.314 7.308-4.049 0-7.314-3.262-7.314-7.308V77.036c0-1.174.914-2.0872 2.09-2.0872 1.176 0 2.09.9132 2.09 2.0873v20.009c0 1.74 1.394 3.132 3.135 3.132zm27.168-20.8784h-3.135v8.6995h3.135c1.742 0 3.135-1.3924 3.135-3.132V82.431c0-1.74-1.393-3.132-3.135-3.132zm-5.2248-4.1762h5.2248c4.0493 0 7.3148 3.263 7.3148 7.3082v2.4355c0 4.0453-3.2656 7.3077-7.3148 7.3077h-3.135v10.0913c0 1.1744-.914 2.0876-2.0898 2.0876-1.1752 0-2.09-.913-2.09-2.088V77.211c0-1.1746.9148-2.0884 2.09-2.0884zm19.804 9.787c-.827 2.828-1.6977 6.1772-2.525 9.1782h5.0504c-.827-3.001-1.6977-6.3503-2.5254-9.178zm7.5327 19.3565c-1.176.3048-2.264-.3477-2.569-1.4353-.1306-.3483-.218-.783-.3486-1.2615-.217-.827-.565-1.9573-.914-3.306h-7.401c-.391 1.3487-.696 2.479-.914 3.306-.13.4787-.218.9133-.349 1.2616-.305 1.088-1.393 1.74-2.569 1.436-1.088-.305-1.742-1.392-1.436-2.566l6.966-25.228c.218-.913 1.001-1.522 2.003-1.522 1.002 0 1.786.609 2.003 1.522l6.967 25.229c.305 1.175-.348 2.262-1.437 2.567zm3.351-2.001v-25.229c0-1.174.9142-2.0872 2.0894-2.0872 1.177 0 2.091.914 2.091 2.088v25.229c0 1.175-.914 2.088-2.09 2.088-1.175 0-2.09-.913-2.09-2.088zm19.954.9134c-.871-1.8705-1.7858-3.7404-2.743-5.698-1.611-3.3062-3.701-7.5248-5.486-11.3092v16.094c0 1.1746-.915 2.088-2.0906 2.088-1.175 0-2.089-.9134-2.089-2.088v-25.229c0-1 .61-1.8266 1.611-2.0444 1.001-.217 1.872.261 2.351 1.131.871 1.871 1.785 3.741 2.743 5.698 1.612 3.306 3.614 7.526 5.487 11.31V77.037c0-1.174.914-2.0873 2.09-2.0873 1.176 0 2.09.9135 2.09 2.0875v25.2287c0 1-.696 1.826-1.611 2.044-1.001.217-1.959-.262-2.351-1.131z" fill="#FFF"/>
    <mask id="b" fill="#fff">
      <use xlink:href="#a"/>
    </mask>
    <path d="M41.2135 68.3825c-10.905 0-21.1774 2.9597-28.925 8.3348C4.3642 82.2148 0 89.5817 0 97.4603c0 3.072 1.6664 5.9204 4.692 8.0193 2.8492 1.9765 6.608 3.0652 10.5856 3.0652H58.965c6.043 0 10.959-4.9722 10.959-11.0846 0-16.0336-12.8795-29.0777-28.7105-29.0777" fill="#D19137" mask="url(#b)"/>
    <mask id="d" fill="#fff">
      <use xlink:href="#c"/>
    </mask>
    <path d="M120.8095 89.1504H15.0347V3.796h105.7748v85.3544z" fill="#BDE2F1" mask="url(#d)"/>
    <path d="M120.8095 18.8205H15.0347V9.8057h105.7748v9.0148z" fill="#A2D8EF" mask="url(#d)"/>
    <path d="M120.8095 32.3428H15.0347V18.8205h105.7748v13.5223z" fill="#84CFEC" mask="url(#d)"/>
    <path d="M120.8095 52.6256H15.0347V32.3422h105.7748v20.2834z" fill="#5DC4E9" mask="url(#d)"/>
    <path d="M120.8093 55.4747V44.087l-.7597-.4258c-.322-.1796-.712-.1918-1.0447-.0318l-.765.3684c-.513.2465-1.129.0747-1.44-.4012l-6.59-10.0903c-.066-.0997-.146-.1887-.24-.264l-1.19-.954c-.383-.307-.92-.3324-1.33-.063l-1.092.716c-.382.2507-.878.2475-1.256-.009l-5.672-3.8375c-.423-.2862-.986-.254-1.373.079l-1.636 1.4056c-.441.3785-1.097.3626-1.518-.0376l-6.75-6.4102c-.459-.4363-1.188-.4108-1.615.0567l-1.161 1.2694c-.289.316-.732.442-1.144.3254l-9.538-2.699c-.553-.156-1.134.125-1.354.654l-.351.845c-.294.705-1.191.926-1.779.428-.437-.37-1.104-.283-1.506.124L66.9 27.977c-.367.372-.9417.444-1.3895.175L58 23.633c-.3083-.185-.686-.2135-1.018-.0757l-4.958 2.056c-.529.2198-1.138.01-1.42-.488l-2.686-4.753c-.361-.6374-1.224-.7694-1.7595-.269l-2.141 2.0036c-.427.399-1.0876.408-1.5248.02l-2.959-2.623c-.2723-.241-.644-.337-.9997-.257l-15.54 3.489c-.216.048-.413.159-.566.318l-7.394 7.659v24.762h-.0005v15.326h105.775V55.475z" fill="#5F99C6" mask="url(#d)"/>
    <g transform="translate(14.79 19.014)">
      <mask id="f" fill="#fff">
        <use xlink:href="#e"/>
      </mask>
      <path d="M31.7053 4.4037l-4.237 41.0278-11.633-7.3204 15.87-33.707z" fill="#6EA1CB" mask="url(#f)"/>
    </g>
    <g transform="translate(14.79 19.014)">
      <mask id="h" fill="#fff">
        <use xlink:href="#g"/>
      </mask>
      <path d="M5.6165 46.5268l2.457-40.2126-7.894 8.7628v26.306l5.437 5.1438z" fill="#6EA1CB" mask="url(#h)"/>
    </g>
    <g transform="translate(14.79 19.014)">
      <mask id="j" fill="#fff">
        <use xlink:href="#i"/>
      </mask>
      <path d="M72.5685 6.3144L70.547 41.969l-16.2468-5.0373L72.5685 6.3144z" fill="#6EA1CB" mask="url(#j)"/>
    </g>
    <g transform="translate(14.79 19.014)">
      <mask id="l" fill="#fff">
        <use xlink:href="#k"/>
      </mask>
      <path d="M93.8617 14.171l-4.069 12.6575-13.9532 2.9475 18.0222-15.605z" fill="#6EA1CB" mask="url(#l)"/>
    </g>
    <path d="M15.0344 89.1503v8.0337C15.0454 126.355 38.7197 150 67.9216 150h.0005c29.202 0 52.876-23.645 52.888-52.816v-8.0337H15.035z" fill="#2F80AA"/>
    <mask id="n" fill="#fff">
      <use xlink:href="#m"/>
    </mask>
    <path d="M120.8095 89.1504H15.0347V52.6177h105.7748v36.5327z" fill="#068DC1" mask="url(#n)"/>
    <path d="M97.0842 141.2445l23.626-40.8822c.063-1.0516.099-2.111.099-3.178V93.83l-29.2447 50.606c1.909-.955 3.7515-2.021 5.5198-3.1913m22.441-32.4717l-15.7185 27.1994c7.7365-7.1433 13.3317-16.5647 15.7186-27.1993m-18.0657-19.622l-35.1504 60.822c.5358.017 1.0733.027 1.613.027.6943 0 1.3846-.017 2.0732-.044l35.1398-60.805h-3.6756zm-26.87 0l2.9226 1.686c.3804.22.511.706.2913 1.086l-.7958 1.377c-.2202.381-.7067.511-1.087.291l-7.6978-4.44h-6.3666l12.4726 7.194c.381.22.511.706.2918 1.086l-.7958 1.377c-.2203.38-.7068.511-1.087.291L55.49 89.151h-6.3667l22.0227 12.702c.38.2193.511.7054.291 1.086l-.796 1.377c-.22.3805-.707.5104-1.087.291L42.756 89.151H36.39l31.5725 18.2103c.3804.219.511.706.2912 1.086l-.7958 1.377c-.221.38-.707.51-1.088.291L30.023 89.15h-6.366l41.1222 23.719c.3804.2195.511.7056.2913 1.0856l-.796 1.377c-.22.3806-.7066.511-1.087.2916L17.2905 89.15h-2.256v2.371l46.5614 26.8562c.38.2194.51.7055.291 1.086l-.796 1.377c-.22.38-.707.5105-1.087.291l-44.97-25.938v1.991c0 .5686.012 1.1347.03 1.699l43.347 25.0024c.38.2195.511.706.291 1.086l-.796 1.377c-.22.3802-.707.511-1.087.291l-41.498-23.9352c.141 1.3505.333 2.685.574 4.0033l39.332 22.686c.38.219.511.706.291 1.0862l-.796 1.376c-.221.38-.707.511-1.087.291L16.85 110.929c.4117 1.526.887 3.027 1.4288 4.496l33.7654 19.476c.3803.219.511.705.2912 1.086l-.796 1.377c-.2203.38-.707.51-1.087.291L20.363 120.3c.918 1.879 1.943 3.696 3.069 5.442l25.43 14.668c.3804.2193.511.7053.2913 1.086l-.7958 1.377c-.2202.3805-.7067.5104-1.087.291l-18.851-10.873c5.7528 6.4516 13.062 11.4864 21.3424 14.511L83.081 89.15h-8.4913zm12.167 0L52.851 147.82c1.05.3117 2.113.5948 3.189.8413l34.392-59.5106h-3.6756zm7.3515 0l-34.7636 60.154c1.128.184 2.2675.334 3.4188.445l35.0204-60.599h-3.6756zm-7.4648 57.439l33.195-57.439h-3.6758L82.11 148.074c1.5406-.4273 3.0527-.924 4.5334-1.484m-8.7812 2.474l34.6247-59.9135h-3.676l-34.974 60.519c1.357-.1512 2.7-.3537 4.025-.6054" fill="#008B40" mask="url(#n)"/>
    <path d="M64.2744 115.3322l.7958-1.377c.2197-.38.0892-.8666-.2912-1.086L23.6567 89.1506H17.29l45.8973 26.4726c.3804.2195.8675.089 1.087-.291m3.1834-5.5082l.7958-1.377c.2197-.38.0892-.8666-.2912-1.086L36.39 89.1506h-6.3667l36.3473 20.9645c.3804.22.8675.089 1.087-.291m-6.3666 11.017l.796-1.377c.2196-.38.089-.866-.2913-1.086L15.0342 91.522v3.6722L60.004 121.132c.3804.2193.8675.0895 1.087-.291m-3.1832 5.5085l.796-1.377c.2195-.38.089-.8667-.2914-1.086L15.065 98.8833c.0414 1.2854.1268 2.56.2584 3.821L56.8208 126.64c.3804.2193.8674.089 1.087-.291m-3.1832 5.508l.7958-1.377c.2196-.38.089-.8666-.2913-1.086l-39.332-22.6866c.261 1.429.582 2.8368.955 4.2233l36.786 21.2173c.381.2195.868.0896 1.087-.291m-3.183 5.5085l.796-1.377c.22-.38.09-.8666-.291-1.086L18.28 115.4262c.6145 1.6664 1.3117 3.2926 2.0847 4.8747l30.0895 17.355c.3804.219.8674.089 1.087-.291m-3.1832 5.508l.7958-1.377c.2196-.38.089-.867-.2913-1.086l-25.429-14.668c1.4918 2.314 3.162 4.502 4.9875 6.549l18.85 10.872c.3803.219.8673.089 1.087-.291m55.449-6.901l15.7184-27.2c.6128-2.73 1.0134-5.54 1.1848-8.411l-23.626 40.882c2.3833-1.577 4.6313-3.341 6.7227-5.272m-12.243 8.463l29.245-50.605v-4.68h-.972l-33.194 57.44c1.683-.636 3.325-1.356 4.92-2.154m-9.454 3.638l34.053-58.924h-3.676l-34.625 59.914c1.437-.273 2.854-.603 4.247-.99m26.702-58.923h-3.676l-35.14 60.805c1.293-.0508 2.574-.146 3.842-.287l34.974-60.519zm-11.027 0l-35.021 60.599c1.171.113 2.354.188 3.547.223l35.15-60.823h-3.676zm-7.352 0L56.04 148.66c1.089.2494 2.191.4625 3.304.644L94.107 89.15h-3.675zm-7.3517 0l-33.317 57.654c1.015.37 2.0452.707 3.0877 1.016L86.756 89.15h-3.675z" fill="#00A14B" mask="url(#n)"/>
    <path d="M74.0213 7.396c0 .4522-.0016.7214-.0838.8842.0822-.1628.0838-.432.0838-.884 0-.889-.003-2.4765-.6303-4.2134.6277 1.7364.6303 3.3244.6303 4.2133m3.2237 29.025c-1.223-2.093-2.279-3.901-2.7138-5.424-1.1576-4.052-1.2627-18.604-1.2712-21.95 1.032-.054 1.2915-.343 1.2915-1.65 0-1.147 0-3.537-1.3657-5.922-.1868.002-.3624-.1-.4574-.262h-10.336c-.095.162-.2706.264-.4574.262-1.3656 2.386-1.3656 4.775-1.3656 5.922 0 1.307.26 1.596 1.2914 1.65-.0083 3.346-.113 17.898-1.2705 21.951-.435 1.522-1.4908 3.33-2.7137 5.424-2.2538 3.859-5.0588 8.662-5.0588 13.944v50.884c0 1.556.7103 2.211 2.7147 2.504 1.9763.288 5.5463.288 12.028.288 6.4818 0 10.0523 0 12.028-.288 2.005-.292 2.7155-.947 2.7155-2.503V50.365c0-5.2823-2.805-10.085-5.0594-13.944" fill="#74892A" mask="url(#n)"/>
    <path d="M72.729.1523H62.3926c-.5714 0-1.0988.3064-1.382.802-1.5016 2.628-1.5016 5.204-1.5016 6.442 0 .7712 0 1.569.7045 2.1854.1862.1627.38.276.5836.355-.034 6.821-.32 17.5957-1.227 20.769-.398 1.394-1.423 3.1484-2.609 5.18-2.318 3.97-5.203 8.91-5.203 14.4785v50.8834c0 1.4083.412 3.0842 3.623 3.5523 2.052.299 5.65.299 12.182.299 6.531 0 10.129 0 12.182-.3 3.211-.468 3.623-2.144 3.623-3.553V50.364c0-5.5686-2.885-10.5085-5.204-14.4785-1.186-2.0316-2.211-3.786-2.61-5.18-.906-3.1733-1.192-13.948-1.227-20.769.204-.0784.398-.1923.584-.355.705-.6165.705-1.4142.705-2.1854 0-1.238 0-3.814-1.502-6.442-.283-.496-.81-.802-1.382-.802m0 1.59c1.293 2.262 1.293 4.523 1.293 5.654 0 1.131 0 1.131-1.2922 1.131 0 1.131 0 18.092 1.2927 22.615 1.292 4.523 7.752 11.307 7.752 19.222v50.884c0 2.262-1.292 2.262-14.213 2.262s-14.213 0-14.213-2.261V50.365c0-7.915 6.461-14.6997 7.753-19.2225 1.292-4.5236 1.292-21.4847 1.292-22.615-1.292 0-1.292 0-1.292-1.131s0-3.392 1.292-5.654H72.73" fill="#5D772F" mask="url(#n)"/>
    <path d="M63.1244 103.4926c-1.817-.2894-2.1413-1.1417-2.1413-2.2447V50.364c0-7.9156 3.542-14.7 4.834-19.2228 1.293-4.5228 1.293-21.484 1.293-22.615-1.292 0-1.292 0-1.292-1.1306s0-3.392 1.293-5.654h-2.86c-1.292 2.2618-1.292 4.5234-1.292 5.654 0 1.1306 0 1.1306 1.292 1.1306 0 1.131 0 18.0922-1.292 22.615-1.293 4.5228-7.753 11.3072-7.753 19.2228v50.8834c0 1.8215.839 2.1756 7.919 2.2445" fill="#8A9743" mask="url(#n)"/>
    <path d="M53.3482 90.317h22.9473V55.2032H53.3482V90.317z" fill="#FFFBDB" mask="url(#n)"/>
    <path d="M60.9828 55.2032H55.205V90.317h5.7778V55.2032z" fill="#FEFEFE" mask="url(#n)"/>
    <path d="M41.2134 106.9547h-25.936c-7.5586 0-13.686-4.251-13.686-9.4946 0-15.18 17.7395-27.487 39.622-27.487" fill="#F1B75A" mask="url(#n)"/>
    <path d="M58.965 106.9547H23.462c-5.1733 0-9.3673-4.251-9.3673-9.4946 0-15.18 12.1416-27.487 27.119-27.487 14.9773 0 27.119 12.307 27.119 27.488 0 5.244-4.194 9.495-9.3674 9.495" fill="#FFF3D7" mask="url(#n)"/>
    <path d="M28.354 89.97c-.1357 0-.2715-.052-.375-.1553l-1.5454-1.5445c-.2075-.2073-.2075-.5422 0-.7495.2074-.2072.5427-.2072.75 0l1.5456 1.5445c.2075.2073.2075.5423 0 .7495-.1034.1034-.2392.1553-.375.1553m2.3025 0c-.136 0-.2717-.052-.375-.1553l-1.5456-1.5445c-.207-.2073-.207-.5422 0-.7495.208-.2072.543-.2072.751 0l1.546 1.5445c.208.2073.208.5423 0 .7495-.103.1034-.239.1553-.375.1553m25.732 9.6343c-.135 0-.271-.052-.375-.1553l-1.545-1.544c-.207-.2072-.207-.5422 0-.7494.208-.2073.543-.2073.751 0l1.546 1.544c.208.2072.208.5422 0 .7494-.103.1034-.239.1553-.375.1553m2.303 0c-.136 0-.271-.052-.375-.1553l-1.545-1.544c-.2072-.2072-.2072-.5422 0-.7494.2077-.2073.543-.2073.75 0l1.5457 1.544c.207.2072.207.5422 0 .7494-.1037.1034-.2395.1553-.375.1553M48.04 78.3583c-.136 0-.2717-.052-.375-.1552l-1.546-1.544c-.2076-.207-.2076-.542 0-.749.2073-.207.5426-.207.75 0l1.546 1.545c.2075.208.2075.543 0 .75-.1034.104-.2393.156-.375.156" fill="#F5DFB0" mask="url(#n)"/>
    <path d="M9.654 90.2092c-.015 0-.031-.0016-.0463-.0043-.13-.023-.2234-.138-.219-.27.001-.028.104-2.865.982-6.105 1.1693-4.319 3.18-7.4 5.8147-8.91 4.5012-2.58 7.5216-3.209 7.648-3.235.1235-.027.2423.037.2933.149.0514.112.019.244-.0775.32C15.4257 78.872 12.253 82.881 9.906 90.027c-.0362.1103-.139.1824-.252.1824" fill="#F8D9A1" mask="url(#n)"/>
    <path d="M41.2135 68.3825c-10.905 0-21.1774 2.9597-28.925 8.3348C4.3642 82.2148 0 89.5817 0 97.4603c0 3.072 1.6664 5.9204 4.692 8.0193 2.8492 1.9765 6.608 3.0652 10.5856 3.0652H58.965c6.043 0 10.959-4.9722 10.959-11.0846 0-16.0336-12.8795-29.0777-28.7105-29.0777m0 1.59c14.9773 0 27.119 12.3064 27.119 27.4877 0 5.2436-4.194 9.4945-9.3674 9.4945H15.278c-7.5587 0-13.686-4.251-13.686-9.4945 0-15.1813 17.7394-27.4876 39.622-27.4876" fill="#D19137" mask="url(#n)"/>
    <path d="M41.2135 68.3825c-10.905 0-21.1774 2.9597-28.925 8.3348C4.3642 82.2148 0 89.5817 0 97.4603c0 3.072 1.6664 5.9204 4.692 8.0193 2.8492 1.9765 6.608 3.0652 10.5856 3.0652H58.965c6.043 0 10.959-4.9722 10.959-11.0846 0-16.0336-12.8795-29.0777-28.7105-29.0777m0 1.59c14.9773 0 27.119 12.3064 27.119 27.4877 0 5.2436-4.194 9.4945-9.3674 9.4945H15.278c-7.5587 0-13.686-4.251-13.686-9.4945 0-15.1813 17.7394-27.4876 39.622-27.4876" fill="#D19137" mask="url(#n)"/>
    <path d="M114.684 56.774H93.7085c-.6696 0-1.267.4182-1.4956 1.0463L74.51 106.4107c-.1778.4877-.106 1.031.1915 1.456.2982.425.7847.678 1.304.678h20.9758l35.9235-.0027c.879 0 1.5916-.7118 1.5916-1.59 0-18.2593-6.61-35.886-18.6127-49.633-.3024-.3462-.7396-.545-1.1996-.545" fill="#D4A464" mask="url(#n)"/>
    <path d="M96.9815 106.9547H76.0057L93.708 58.3642h20.9763l-17.7028 48.5905z" fill="#FFEFAF" mask="url(#n)"/>
    <path d="M132.9046 106.952c0-18.599-6.8743-35.5925-18.2206-48.588l-17.7023 48.5905 35.923-.0026z" fill="#E8BA6F" mask="url(#n)"/>
    <path d="M100.5137 83.8172c-.2016 1.3023-1.4213 2.3582-2.725 2.3582-1.3034 0-2.197-1.056-1.9958-2.3582.201-1.3023 1.421-2.358 2.724-2.358s2.197 1.0557 1.996 2.358m-15.638 18.101c-.106.681-.744 1.2334-1.425 1.2334-.682 0-1.149-.5523-1.044-1.2334.105-.681.743-1.2334 1.425-1.2334s1.149.5523 1.043 1.2334m17.552-31.068c-.106.681-.743 1.2335-1.425 1.2335s-1.149-.5523-1.044-1.2334c.105-.681.743-1.2334 1.425-1.2334s1.149.552 1.0433 1.233M94.56 63.91c-.0502.325-.3552.589-.681.589-.3255 0-.549-.264-.4984-.59.0494-.326.355-.589.681-.589.326 0 .549.264.4985.589m9.61 5.117c-.0503.325-.3553.589-.681.589-.326 0-.549-.264-.499-.59.05-.326.355-.59.6818-.59.3253 0 .549.264.4982.589m-7.902-6.083c-.0505.325-.3556.589-.681.589-.326 0-.5495-.264-.499-.59.05-.325.355-.589.6812-.589.326 0 .5496.264.499.5894m-.597 23.821c-.0504.3252-.3555.5892-.681.5892-.326 0-.549-.264-.499-.5896.05-.326.355-.59.681-.59.326 0 .549.264.499.589" fill="#FFF9C7" mask="url(#n)"/>
  </g>
</svg>